<?xml version="1.0" encoding="utf-8" standalone="no"?>
<!DOCTYPE svg PUBLIC "-//W3C//DTD SVG 1.1//EN"
  "http://www.w3.org/Graphics/SVG/1.1/DTD/svg11.dtd">
<svg xmlns:xlink="http://www.w3.org/1999/xlink" width="432pt" height="259.2pt" viewBox="0 0 432 259.2" xmlns="http://www.w3.org/2000/svg" version="1.1">
 <metadata>
  <rdf:RDF xmlns:dc="http://purl.org/dc/elements/1.1/" xmlns:cc="http://creativecommons.org/ns#" xmlns:rdf="http://www.w3.org/1999/02/22-rdf-syntax-ns#">
   <cc:Work>
    <dc:type rdf:resource="http://purl.org/dc/dcmitype/StillImage"/>
    <dc:date>2023-12-13T20:21:44.435263</dc:date>
    <dc:format>image/svg+xml</dc:format>
    <dc:creator>
     <cc:Agent>
      <dc:title>Matplotlib v3.7.2, https://matplotlib.org/</dc:title>
     </cc:Agent>
    </dc:creator>
   </cc:Work>
  </rdf:RDF>
 </metadata>
 <defs>
  <style type="text/css">*{stroke-linejoin: round; stroke-linecap: butt}</style>
 </defs>
 <g id="figure_1">
  <g id="patch_1">
   <path d="M 0 259.2 
L 432 259.2 
L 432 0 
L 0 0 
z
" style="fill: #ffffff"/>
  </g>
  <g id="axes_1">
   <g id="patch_2">
    <path d="M 45.74 212.92 
L 415.62 212.92 
L 415.62 10.8 
L 45.74 10.8 
z
" style="fill: #ffffff"/>
   </g>
   <g id="matplotlib.axis_1">
    <g id="xtick_1">
     <g id="line2d_1">
      <defs>
       <path id="mb270919dc1" d="M 0 0 
L 0 3.5 
" style="stroke: #000000; stroke-width: 0.8"/>
      </defs>
      <g>
       <use xlink:href="#mb270919dc1" x="45.74" y="212.92" style="stroke: #000000; stroke-width: 0.8"/>
      </g>
     </g>
     <g id="text_1">
      <!-- 0 -->
      <g transform="translate(42.959531 227.093437) scale(0.1 -0.1)">
       <defs>
        <path id="Helvetica-30" d="M 1731 4475 
Q 2600 4475 2988 3759 
Q 3288 3206 3288 2244 
Q 3288 1331 3016 734 
Q 2622 -122 1728 -122 
Q 922 -122 528 578 
Q 200 1163 200 2147 
Q 200 2909 397 3456 
Q 766 4475 1731 4475 
z
M 1725 391 
Q 2163 391 2422 778 
Q 2681 1166 2681 2222 
Q 2681 2984 2493 3476 
Q 2306 3969 1766 3969 
Q 1269 3969 1039 3501 
Q 809 3034 809 2125 
Q 809 1441 956 1025 
Q 1181 391 1725 391 
z
" transform="scale(0.015625)"/>
       </defs>
       <use xlink:href="#Helvetica-30"/>
      </g>
     </g>
    </g>
    <g id="xtick_2">
     <g id="line2d_2">
      <g>
       <use xlink:href="#mb270919dc1" x="119.716" y="212.92" style="stroke: #000000; stroke-width: 0.8"/>
      </g>
     </g>
     <g id="text_2">
      <!-- 2 -->
      <g transform="translate(116.935531 227.093437) scale(0.1 -0.1)">
       <defs>
        <path id="Helvetica-32" d="M 200 0 
Q 231 578 439 1006 
Q 647 1434 1250 1784 
L 1850 2131 
Q 2253 2366 2416 2531 
Q 2672 2791 2672 3125 
Q 2672 3516 2437 3745 
Q 2203 3975 1813 3975 
Q 1234 3975 1013 3538 
Q 894 3303 881 2888 
L 309 2888 
Q 319 3472 525 3841 
Q 891 4491 1816 4491 
Q 2584 4491 2939 4075 
Q 3294 3659 3294 3150 
Q 3294 2613 2916 2231 
Q 2697 2009 2131 1694 
L 1703 1456 
Q 1397 1288 1222 1134 
Q 909 863 828 531 
L 3272 531 
L 3272 0 
L 200 0 
z
" transform="scale(0.015625)"/>
       </defs>
       <use xlink:href="#Helvetica-32"/>
      </g>
     </g>
    </g>
    <g id="xtick_3">
     <g id="line2d_3">
      <g>
       <use xlink:href="#mb270919dc1" x="193.692" y="212.92" style="stroke: #000000; stroke-width: 0.8"/>
      </g>
     </g>
     <g id="text_3">
      <!-- 4 -->
      <g transform="translate(190.911531 227.093437) scale(0.1 -0.1)">
       <defs>
        <path id="Helvetica-34" d="M 2116 1584 
L 2116 3613 
L 681 1584 
L 2116 1584 
z
M 2125 0 
L 2125 1094 
L 163 1094 
L 163 1644 
L 2213 4488 
L 2688 4488 
L 2688 1584 
L 3347 1584 
L 3347 1094 
L 2688 1094 
L 2688 0 
L 2125 0 
z
" transform="scale(0.015625)"/>
       </defs>
       <use xlink:href="#Helvetica-34"/>
      </g>
     </g>
    </g>
    <g id="xtick_4">
     <g id="line2d_4">
      <g>
       <use xlink:href="#mb270919dc1" x="267.668" y="212.92" style="stroke: #000000; stroke-width: 0.8"/>
      </g>
     </g>
     <g id="text_4">
      <!-- 6 -->
      <g transform="translate(264.887531 227.093437) scale(0.1 -0.1)">
       <defs>
        <path id="Helvetica-36" d="M 1872 4494 
Q 2622 4494 2917 4105 
Q 3213 3716 3213 3303 
L 2656 3303 
Q 2606 3569 2497 3719 
Q 2294 4000 1881 4000 
Q 1409 4000 1131 3564 
Q 853 3128 822 2316 
Q 1016 2600 1309 2741 
Q 1578 2866 1909 2866 
Q 2472 2866 2890 2506 
Q 3309 2147 3309 1434 
Q 3309 825 2912 354 
Q 2516 -116 1781 -116 
Q 1153 -116 697 361 
Q 241 838 241 1966 
Q 241 2800 444 3381 
Q 834 4494 1872 4494 
z
M 1831 384 
Q 2275 384 2495 682 
Q 2716 981 2716 1388 
Q 2716 1731 2519 2042 
Q 2322 2353 1803 2353 
Q 1441 2353 1167 2112 
Q 894 1872 894 1388 
Q 894 963 1142 673 
Q 1391 384 1831 384 
z
" transform="scale(0.015625)"/>
       </defs>
       <use xlink:href="#Helvetica-36"/>
      </g>
     </g>
    </g>
    <g id="xtick_5">
     <g id="line2d_5">
      <g>
       <use xlink:href="#mb270919dc1" x="341.644" y="212.92" style="stroke: #000000; stroke-width: 0.8"/>
      </g>
     </g>
     <g id="text_5">
      <!-- 8 -->
      <g transform="translate(338.863531 227.093437) scale(0.1 -0.1)">
       <defs>
        <path id="Helvetica-38" d="M 1741 2600 
Q 2113 2600 2322 2808 
Q 2531 3016 2531 3303 
Q 2531 3553 2331 3762 
Q 2131 3972 1722 3972 
Q 1316 3972 1134 3762 
Q 953 3553 953 3272 
Q 953 2956 1187 2778 
Q 1422 2600 1741 2600 
z
M 1775 384 
Q 2166 384 2423 595 
Q 2681 806 2681 1225 
Q 2681 1659 2415 1884 
Q 2150 2109 1734 2109 
Q 1331 2109 1076 1879 
Q 822 1650 822 1244 
Q 822 894 1055 639 
Q 1288 384 1775 384 
z
M 975 2384 
Q 741 2484 609 2619 
Q 363 2869 363 3269 
Q 363 3769 725 4128 
Q 1088 4488 1753 4488 
Q 2397 4488 2762 4148 
Q 3128 3809 3128 3356 
Q 3128 2938 2916 2678 
Q 2797 2531 2547 2391 
Q 2825 2263 2984 2097 
Q 3281 1784 3281 1284 
Q 3281 694 2884 283 
Q 2488 -128 1763 -128 
Q 1109 -128 657 226 
Q 206 581 206 1256 
Q 206 1653 400 1942 
Q 594 2231 975 2384 
z
" transform="scale(0.015625)"/>
       </defs>
       <use xlink:href="#Helvetica-38"/>
      </g>
     </g>
    </g>
    <g id="xtick_6">
     <g id="line2d_6">
      <g>
       <use xlink:href="#mb270919dc1" x="415.62" y="212.92" style="stroke: #000000; stroke-width: 0.8"/>
      </g>
     </g>
     <g id="text_6">
      <!-- 10 -->
      <g transform="translate(410.059062 227.093437) scale(0.1 -0.1)">
       <defs>
        <path id="Helvetica-31" d="M 613 3169 
L 613 3600 
Q 1222 3659 1462 3798 
Q 1703 3938 1822 4456 
L 2266 4456 
L 2266 0 
L 1666 0 
L 1666 3169 
L 613 3169 
z
" transform="scale(0.015625)"/>
       </defs>
       <use xlink:href="#Helvetica-31"/>
       <use xlink:href="#Helvetica-30" x="55.615234"/>
      </g>
     </g>
    </g>
    <g id="text_7">
     <!-- Distance ($\AA$) -->
     <g transform="translate(203.08 242.477812) scale(0.1 -0.1)">
      <defs>
       <path id="Helvetica-44" d="M 2250 531 
Q 2566 531 2769 597 
Q 3131 719 3363 1066 
Q 3547 1344 3628 1778 
Q 3675 2038 3675 2259 
Q 3675 3113 3336 3584 
Q 2997 4056 2244 4056 
L 1141 4056 
L 1141 531 
L 2250 531 
z
M 516 4591 
L 2375 4591 
Q 3322 4591 3844 3919 
Q 4309 3313 4309 2366 
Q 4309 1634 4034 1044 
Q 3550 0 2369 0 
L 516 0 
L 516 4591 
z
" transform="scale(0.015625)"/>
       <path id="Helvetica-69" d="M 413 3331 
L 984 3331 
L 984 0 
L 413 0 
L 413 3331 
z
M 413 4591 
L 984 4591 
L 984 3953 
L 413 3953 
L 413 4591 
z
" transform="scale(0.015625)"/>
       <path id="Helvetica-73" d="M 747 1050 
Q 772 769 888 619 
Q 1100 347 1625 347 
Q 1938 347 2175 483 
Q 2413 619 2413 903 
Q 2413 1119 2222 1231 
Q 2100 1300 1741 1391 
L 1294 1503 
Q 866 1609 663 1741 
Q 300 1969 300 2372 
Q 300 2847 642 3140 
Q 984 3434 1563 3434 
Q 2319 3434 2653 2991 
Q 2863 2709 2856 2384 
L 2325 2384 
Q 2309 2575 2191 2731 
Q 1997 2953 1519 2953 
Q 1200 2953 1036 2831 
Q 872 2709 872 2509 
Q 872 2291 1088 2159 
Q 1213 2081 1456 2022 
L 1828 1931 
Q 2434 1784 2641 1647 
Q 2969 1431 2969 969 
Q 2969 522 2630 197 
Q 2291 -128 1597 -128 
Q 850 -128 539 211 
Q 228 550 206 1050 
L 747 1050 
z
M 1578 3428 
L 1578 3428 
z
" transform="scale(0.015625)"/>
       <path id="Helvetica-74" d="M 525 4281 
L 1094 4281 
L 1094 3347 
L 1628 3347 
L 1628 2888 
L 1094 2888 
L 1094 703 
Q 1094 528 1213 469 
Q 1278 434 1431 434 
Q 1472 434 1519 436 
Q 1566 438 1628 444 
L 1628 0 
Q 1531 -28 1426 -40 
Q 1322 -53 1200 -53 
Q 806 -53 665 148 
Q 525 350 525 672 
L 525 2888 
L 72 2888 
L 72 3347 
L 525 3347 
L 525 4281 
z
" transform="scale(0.015625)"/>
       <path id="Helvetica-61" d="M 844 891 
Q 844 647 1022 506 
Q 1200 366 1444 366 
Q 1741 366 2019 503 
Q 2488 731 2488 1250 
L 2488 1703 
Q 2384 1638 2221 1594 
Q 2059 1550 1903 1531 
L 1563 1488 
Q 1256 1447 1103 1359 
Q 844 1213 844 891 
z
M 2206 2028 
Q 2400 2053 2466 2191 
Q 2503 2266 2503 2406 
Q 2503 2694 2298 2823 
Q 2094 2953 1713 2953 
Q 1272 2953 1088 2716 
Q 984 2584 953 2325 
L 428 2325 
Q 444 2944 830 3186 
Q 1216 3428 1725 3428 
Q 2316 3428 2684 3203 
Q 3050 2978 3050 2503 
L 3050 575 
Q 3050 488 3086 434 
Q 3122 381 3238 381 
Q 3275 381 3322 386 
Q 3369 391 3422 400 
L 3422 -16 
Q 3291 -53 3222 -62 
Q 3153 -72 3034 -72 
Q 2744 -72 2613 134 
Q 2544 244 2516 444 
Q 2344 219 2022 53 
Q 1700 -113 1313 -113 
Q 847 -113 551 170 
Q 256 453 256 878 
Q 256 1344 547 1600 
Q 838 1856 1309 1916 
L 2206 2028 
z
M 1741 3428 
L 1741 3428 
z
" transform="scale(0.015625)"/>
       <path id="Helvetica-6e" d="M 413 3347 
L 947 3347 
L 947 2872 
Q 1184 3166 1450 3294 
Q 1716 3422 2041 3422 
Q 2753 3422 3003 2925 
Q 3141 2653 3141 2147 
L 3141 0 
L 2569 0 
L 2569 2109 
Q 2569 2416 2478 2603 
Q 2328 2916 1934 2916 
Q 1734 2916 1606 2875 
Q 1375 2806 1200 2600 
Q 1059 2434 1017 2257 
Q 975 2081 975 1753 
L 975 0 
L 413 0 
L 413 3347 
z
M 1734 3428 
L 1734 3428 
z
" transform="scale(0.015625)"/>
       <path id="Helvetica-63" d="M 1703 3444 
Q 2269 3444 2623 3169 
Q 2978 2894 3050 2222 
L 2503 2222 
Q 2453 2531 2275 2736 
Q 2097 2941 1703 2941 
Q 1166 2941 934 2416 
Q 784 2075 784 1575 
Q 784 1072 996 728 
Q 1209 384 1666 384 
Q 2016 384 2220 598 
Q 2425 813 2503 1184 
L 3050 1184 
Q 2956 519 2581 211 
Q 2206 -97 1622 -97 
Q 966 -97 575 383 
Q 184 863 184 1581 
Q 184 2463 612 2953 
Q 1041 3444 1703 3444 
z
M 1616 3428 
L 1616 3428 
z
" transform="scale(0.015625)"/>
       <path id="Helvetica-65" d="M 1806 3422 
Q 2163 3422 2497 3255 
Q 2831 3088 3006 2822 
Q 3175 2569 3231 2231 
Q 3281 2000 3281 1494 
L 828 1494 
Q 844 984 1069 676 
Q 1294 369 1766 369 
Q 2206 369 2469 659 
Q 2619 828 2681 1050 
L 3234 1050 
Q 3213 866 3089 639 
Q 2966 413 2813 269 
Q 2556 19 2178 -69 
Q 1975 -119 1719 -119 
Q 1094 -119 659 336 
Q 225 791 225 1609 
Q 225 2416 662 2919 
Q 1100 3422 1806 3422 
z
M 2703 1941 
Q 2669 2306 2544 2525 
Q 2313 2931 1772 2931 
Q 1384 2931 1121 2651 
Q 859 2372 844 1941 
L 2703 1941 
z
M 1753 3428 
L 1753 3428 
z
" transform="scale(0.015625)"/>
       <path id="Helvetica-20" transform="scale(0.015625)"/>
       <path id="Helvetica-28" d="M 1894 4666 
Q 1403 3713 1256 3263 
Q 1034 2578 1034 1681 
Q 1034 775 1288 25 
Q 1444 -438 1903 -1306 
L 1525 -1306 
Q 1069 -594 959 -397 
Q 850 -200 722 138 
Q 547 600 478 1125 
Q 444 1397 444 1644 
Q 444 2569 734 3291 
Q 919 3750 1503 4666 
L 1894 4666 
z
" transform="scale(0.015625)"/>
       <path id="DejaVuSans-Oblique-c5" d="M 3188 5081 
Q 3188 5278 3048 5417 
Q 2909 5556 2713 5556 
Q 2513 5556 2377 5420 
Q 2241 5284 2241 5081 
Q 2241 4884 2377 4746 
Q 2513 4609 2713 4609 
Q 2909 4609 3048 4746 
Q 3188 4884 3188 5081 
z
M 2203 4397 
Q 2034 4513 1945 4689 
Q 1856 4866 1856 5081 
Q 1856 5438 2106 5689 
Q 2356 5941 2713 5941 
Q 3069 5941 3320 5689 
Q 3572 5438 3572 5081 
Q 3572 4834 3458 4643 
Q 3344 4453 3128 4341 
L 3938 0 
L 3278 0 
L 3084 1197 
L 984 1197 
L 325 0 
L -341 0 
L 2203 4397 
z
M 2584 4044 
L 1275 1722 
L 2988 1722 
L 2584 4044 
z
" transform="scale(0.015625)"/>
       <path id="Helvetica-29" d="M 222 -1306 
Q 719 -338 863 106 
Q 1081 778 1081 1681 
Q 1081 2584 828 3334 
Q 672 3797 213 4666 
L 591 4666 
Q 1072 3897 1173 3717 
Q 1275 3538 1394 3222 
Q 1544 2831 1608 2450 
Q 1672 2069 1672 1716 
Q 1672 791 1378 66 
Q 1194 -400 613 -1306 
L 222 -1306 
z
" transform="scale(0.015625)"/>
      </defs>
      <use xlink:href="#Helvetica-44" transform="translate(0 0.171875)"/>
      <use xlink:href="#Helvetica-69" transform="translate(72.216797 0.171875)"/>
      <use xlink:href="#Helvetica-73" transform="translate(94.433594 0.171875)"/>
      <use xlink:href="#Helvetica-74" transform="translate(144.433594 0.171875)"/>
      <use xlink:href="#Helvetica-61" transform="translate(172.216797 0.171875)"/>
      <use xlink:href="#Helvetica-6e" transform="translate(227.832031 0.171875)"/>
      <use xlink:href="#Helvetica-63" transform="translate(283.447266 0.171875)"/>
      <use xlink:href="#Helvetica-65" transform="translate(333.447266 0.171875)"/>
      <use xlink:href="#Helvetica-20" transform="translate(389.0625 0.171875)"/>
      <use xlink:href="#Helvetica-28" transform="translate(416.845703 0.171875)"/>
      <use xlink:href="#DejaVuSans-Oblique-c5" transform="translate(450.146484 0.171875)"/>
      <use xlink:href="#Helvetica-29" transform="translate(518.554688 0.171875)"/>
     </g>
    </g>
   </g>
   <g id="matplotlib.axis_2">
    <g id="ytick_1">
     <g id="line2d_7">
      <defs>
       <path id="m57ab6b2c1b" d="M 0 0 
L -3.5 0 
" style="stroke: #000000; stroke-width: 0.8"/>
      </defs>
      <g>
       <use xlink:href="#m57ab6b2c1b" x="45.74" y="202.341174" style="stroke: #000000; stroke-width: 0.8"/>
      </g>
     </g>
     <g id="text_8">
      <!-- 0.0 -->
      <g transform="translate(24.84 205.927892) scale(0.1 -0.1)">
       <defs>
        <path id="Helvetica-2e" d="M 547 681 
L 1200 681 
L 1200 0 
L 547 0 
L 547 681 
z
" transform="scale(0.015625)"/>
       </defs>
       <use xlink:href="#Helvetica-30"/>
       <use xlink:href="#Helvetica-2e" x="55.615234"/>
       <use xlink:href="#Helvetica-30" x="83.398438"/>
      </g>
     </g>
    </g>
    <g id="ytick_2">
     <g id="line2d_8">
      <g>
       <use xlink:href="#m57ab6b2c1b" x="45.74" y="172.247784" style="stroke: #000000; stroke-width: 0.8"/>
      </g>
     </g>
     <g id="text_9">
      <!-- 0.5 -->
      <g transform="translate(24.84 175.834503) scale(0.1 -0.1)">
       <defs>
        <path id="Helvetica-35" d="M 791 1141 
Q 847 659 1238 475 
Q 1438 381 1700 381 
Q 2200 381 2440 700 
Q 2681 1019 2681 1406 
Q 2681 1875 2395 2131 
Q 2109 2388 1709 2388 
Q 1419 2388 1211 2275 
Q 1003 2163 856 1963 
L 369 1991 
L 709 4400 
L 3034 4400 
L 3034 3856 
L 1131 3856 
L 941 2613 
Q 1097 2731 1238 2791 
Q 1488 2894 1816 2894 
Q 2431 2894 2859 2497 
Q 3288 2100 3288 1491 
Q 3288 856 2895 371 
Q 2503 -113 1644 -113 
Q 1097 -113 676 195 
Q 256 503 206 1141 
L 791 1141 
z
" transform="scale(0.015625)"/>
       </defs>
       <use xlink:href="#Helvetica-30"/>
       <use xlink:href="#Helvetica-2e" x="55.615234"/>
       <use xlink:href="#Helvetica-35" x="83.398438"/>
      </g>
     </g>
    </g>
    <g id="ytick_3">
     <g id="line2d_9">
      <g>
       <use xlink:href="#m57ab6b2c1b" x="45.74" y="142.154394" style="stroke: #000000; stroke-width: 0.8"/>
      </g>
     </g>
     <g id="text_10">
      <!-- 1.0 -->
      <g transform="translate(24.84 145.741113) scale(0.1 -0.1)">
       <use xlink:href="#Helvetica-31"/>
       <use xlink:href="#Helvetica-2e" x="55.615234"/>
       <use xlink:href="#Helvetica-30" x="83.398438"/>
      </g>
     </g>
    </g>
    <g id="ytick_4">
     <g id="line2d_10">
      <g>
       <use xlink:href="#m57ab6b2c1b" x="45.74" y="112.061005" style="stroke: #000000; stroke-width: 0.8"/>
      </g>
     </g>
     <g id="text_11">
      <!-- 1.5 -->
      <g transform="translate(24.84 115.647724) scale(0.1 -0.1)">
       <use xlink:href="#Helvetica-31"/>
       <use xlink:href="#Helvetica-2e" x="55.615234"/>
       <use xlink:href="#Helvetica-35" x="83.398438"/>
      </g>
     </g>
    </g>
    <g id="ytick_5">
     <g id="line2d_11">
      <g>
       <use xlink:href="#m57ab6b2c1b" x="45.74" y="81.967615" style="stroke: #000000; stroke-width: 0.8"/>
      </g>
     </g>
     <g id="text_12">
      <!-- 2.0 -->
      <g transform="translate(24.84 85.554334) scale(0.1 -0.1)">
       <use xlink:href="#Helvetica-32"/>
       <use xlink:href="#Helvetica-2e" x="55.615234"/>
       <use xlink:href="#Helvetica-30" x="83.398438"/>
      </g>
     </g>
    </g>
    <g id="ytick_6">
     <g id="line2d_12">
      <g>
       <use xlink:href="#m57ab6b2c1b" x="45.74" y="51.874226" style="stroke: #000000; stroke-width: 0.8"/>
      </g>
     </g>
     <g id="text_13">
      <!-- 2.5 -->
      <g transform="translate(24.84 55.460945) scale(0.1 -0.1)">
       <use xlink:href="#Helvetica-32"/>
       <use xlink:href="#Helvetica-2e" x="55.615234"/>
       <use xlink:href="#Helvetica-35" x="83.398438"/>
      </g>
     </g>
    </g>
    <g id="ytick_7">
     <g id="line2d_13">
      <g>
       <use xlink:href="#m57ab6b2c1b" x="45.74" y="21.780836" style="stroke: #000000; stroke-width: 0.8"/>
      </g>
     </g>
     <g id="text_14">
      <!-- 3.0 -->
      <g transform="translate(24.84 25.367555) scale(0.1 -0.1)">
       <defs>
        <path id="Helvetica-33" d="M 1663 -122 
Q 869 -122 511 314 
Q 153 750 153 1375 
L 741 1375 
Q 778 941 903 744 
Q 1122 391 1694 391 
Q 2138 391 2406 628 
Q 2675 866 2675 1241 
Q 2675 1703 2392 1887 
Q 2109 2072 1606 2072 
Q 1550 2072 1492 2070 
Q 1434 2069 1375 2066 
L 1375 2563 
Q 1463 2553 1522 2550 
Q 1581 2547 1650 2547 
Q 1966 2547 2169 2647 
Q 2525 2822 2525 3272 
Q 2525 3606 2287 3787 
Q 2050 3969 1734 3969 
Q 1172 3969 956 3594 
Q 838 3388 822 3006 
L 266 3006 
Q 266 3506 466 3856 
Q 809 4481 1675 4481 
Q 2359 4481 2734 4176 
Q 3109 3872 3109 3294 
Q 3109 2881 2888 2625 
Q 2750 2466 2531 2375 
Q 2884 2278 3082 2001 
Q 3281 1725 3281 1325 
Q 3281 684 2859 281 
Q 2438 -122 1663 -122 
z
" transform="scale(0.015625)"/>
       </defs>
       <use xlink:href="#Helvetica-33"/>
       <use xlink:href="#Helvetica-2e" x="55.615234"/>
       <use xlink:href="#Helvetica-30" x="83.398438"/>
      </g>
     </g>
    </g>
    <g id="text_15">
     <!-- g(r) -->
     <g transform="translate(18.6275 119.635) rotate(-90) scale(0.1 -0.1)">
      <defs>
       <path id="Helvetica-67" d="M 1594 3406 
Q 1988 3406 2281 3213 
Q 2441 3103 2606 2894 
L 2606 3316 
L 3125 3316 
L 3125 272 
Q 3125 -366 2938 -734 
Q 2588 -1416 1616 -1416 
Q 1075 -1416 706 -1173 
Q 338 -931 294 -416 
L 866 -416 
Q 906 -641 1028 -763 
Q 1219 -950 1628 -950 
Q 2275 -950 2475 -494 
Q 2594 -225 2584 466 
Q 2416 209 2178 84 
Q 1941 -41 1550 -41 
Q 1006 -41 598 345 
Q 191 731 191 1622 
Q 191 2463 602 2934 
Q 1013 3406 1594 3406 
z
M 2606 1688 
Q 2606 2309 2350 2609 
Q 2094 2909 1697 2909 
Q 1103 2909 884 2353 
Q 769 2056 769 1575 
Q 769 1009 998 714 
Q 1228 419 1616 419 
Q 2222 419 2469 966 
Q 2606 1275 2606 1688 
z
M 1659 3428 
L 1659 3428 
z
" transform="scale(0.015625)"/>
       <path id="Helvetica-72" d="M 428 3347 
L 963 3347 
L 963 2769 
Q 1028 2938 1284 3180 
Q 1541 3422 1875 3422 
Q 1891 3422 1928 3419 
Q 1966 3416 2056 3406 
L 2056 2813 
Q 2006 2822 1964 2825 
Q 1922 2828 1872 2828 
Q 1447 2828 1219 2554 
Q 991 2281 991 1925 
L 991 0 
L 428 0 
L 428 3347 
z
" transform="scale(0.015625)"/>
      </defs>
      <use xlink:href="#Helvetica-67"/>
      <use xlink:href="#Helvetica-28" x="55.615234"/>
      <use xlink:href="#Helvetica-72" x="88.916016"/>
      <use xlink:href="#Helvetica-29" x="122.216797"/>
     </g>
    </g>
   </g>
   <g id="line2d_14">
    <path d="M 47.5894 202.341174 
L 51.2882 202.341174 
L 54.987 202.341174 
L 58.6858 202.341174 
L 62.3846 202.341174 
L 66.0834 202.341174 
L 69.7822 202.341174 
L 73.481 202.341174 
L 77.1798 202.341174 
L 80.8786 202.341174 
L 84.5774 202.341174 
L 88.2762 202.341174 
L 91.975 202.341174 
L 95.6738 202.341174 
L 99.3726 202.341174 
L 103.0714 202.341174 
L 106.7702 202.341174 
L 110.469 202.341174 
L 114.1678 202.341174 
L 117.8666 202.341174 
L 121.5654 202.341174 
L 125.2642 202.341174 
L 128.963 202.341174 
L 132.6618 202.341174 
L 136.3606 202.341174 
L 140.0594 202.341174 
L 143.7582 202.341174 
L 147.457 202.341174 
L 151.1558 202.341174 
L 154.8546 202.341174 
L 158.5534 202.337389 
L 162.2522 201.70253 
L 165.951 192.611987 
L 169.6498 159.451415 
L 173.3486 102.301078 
L 177.0474 49.742965 
L 180.7462 22.268183 
L 184.445 25.453309 
L 188.1438 42.101659 
L 191.8426 62.935338 
L 195.5414 84.386661 
L 199.2402 101.859915 
L 202.939 118.862929 
L 206.6378 130.250639 
L 210.3366 138.871357 
L 214.0354 147.569828 
L 217.7342 153.346353 
L 221.433 158.509113 
L 225.1318 162.403079 
L 228.8306 165.228193 
L 232.5294 166.681343 
L 236.2282 167.949826 
L 239.927 168.089533 
L 243.6258 168.453262 
L 247.3246 167.131032 
L 251.0234 166.103546 
L 254.7222 164.357382 
L 258.421 161.506054 
L 262.1198 158.039993 
L 265.8186 154.2597 
L 269.5174 150.311417 
L 273.2162 146.793131 
L 276.915 143.180097 
L 280.6138 139.229291 
L 284.3126 135.140432 
L 288.0114 132.942981 
L 291.7102 131.095391 
L 295.409 128.798117 
L 299.1078 127.174227 
L 302.8066 126.00413 
L 306.5054 124.151701 
L 310.2042 123.670653 
L 313.903 124.755159 
L 317.6018 126.418555 
L 321.3006 130.004789 
L 324.9994 132.411035 
L 328.6982 135.059926 
L 332.397 138.426012 
L 336.0958 141.452395 
L 339.7946 144.276109 
L 343.4934 147.384759 
L 347.1922 148.871388 
L 350.891 151.03888 
L 354.5898 152.55243 
L 358.2886 153.673087 
L 361.9874 153.394903 
L 365.6862 152.289644 
L 369.385 152.467179 
L 373.0838 151.115966 
L 376.7826 150.111307 
L 380.4814 149.283465 
L 384.1802 147.110246 
L 387.879 145.499236 
L 391.5778 144.085599 
L 395.2766 142.386822 
L 398.9754 140.499054 
L 402.6742 138.704653 
L 406.373 137.518531 
L 410.0718 136.614989 
L 413.7706 135.315617 
L 417.4694 135.447342 
" clip-path="url(#p58e0bf3075)" style="fill: none; stroke: #1f77b4; stroke-width: 1.5; stroke-linecap: square"/>
   </g>
   <g id="line2d_15">
    <defs>
     <path id="mc7cd7162ad" d="M 0 1.5 
C 0.397805 1.5 0.77937 1.341951 1.06066 1.06066 
C 1.341951 0.77937 1.5 0.397805 1.5 0 
C 1.5 -0.397805 1.341951 -0.77937 1.06066 -1.06066 
C 0.77937 -1.341951 0.397805 -1.5 0 -1.5 
C -0.397805 -1.5 -0.77937 -1.341951 -1.06066 -1.06066 
C -1.341951 -0.77937 -1.5 -0.397805 -1.5 0 
C -1.5 0.397805 -1.341951 0.77937 -1.06066 1.06066 
C -0.77937 1.341951 -0.397805 1.5 0 1.5 
z
" style="stroke: #ff7f0e"/>
    </defs>
    <g clip-path="url(#p58e0bf3075)">
     <use xlink:href="#mc7cd7162ad" x="54.957216" y="203.732727" style="fill: #ff7f0e; stroke: #ff7f0e"/>
     <use xlink:href="#mc7cd7162ad" x="70.190226" y="203.41142" style="fill: #ff7f0e; stroke: #ff7f0e"/>
     <use xlink:href="#mc7cd7162ad" x="84.868776" y="203.273326" style="fill: #ff7f0e; stroke: #ff7f0e"/>
     <use xlink:href="#mc7cd7162ad" x="99.542759" y="202.60912" style="fill: #ff7f0e; stroke: #ff7f0e"/>
     <use xlink:href="#mc7cd7162ad" x="114.217948" y="202.083887" style="fill: #ff7f0e; stroke: #ff7f0e"/>
     <use xlink:href="#mc7cd7162ad" x="128.896411" y="201.935867" style="fill: #ff7f0e; stroke: #ff7f0e"/>
     <use xlink:href="#mc7cd7162ad" x="143.577632" y="202.105498" style="fill: #ff7f0e; stroke: #ff7f0e"/>
     <use xlink:href="#mc7cd7162ad" x="159.171149" y="200.938283" style="fill: #ff7f0e; stroke: #ff7f0e"/>
     <use xlink:href="#mc7cd7162ad" x="165.714796" y="190.022899" style="fill: #ff7f0e; stroke: #ff7f0e"/>
     <use xlink:href="#mc7cd7162ad" x="166.985511" y="182.671834" style="fill: #ff7f0e; stroke: #ff7f0e"/>
     <use xlink:href="#mc7cd7162ad" x="168.187094" y="167.356503" style="fill: #ff7f0e; stroke: #ff7f0e"/>
     <use xlink:href="#mc7cd7162ad" x="167.326975" y="170.762252" style="fill: #ff7f0e; stroke: #ff7f0e"/>
     <use xlink:href="#mc7cd7162ad" x="167.368678" y="175.566741" style="fill: #ff7f0e; stroke: #ff7f0e"/>
     <use xlink:href="#mc7cd7162ad" x="169.496984" y="151.70665" style="fill: #ff7f0e; stroke: #ff7f0e"/>
     <use xlink:href="#mc7cd7162ad" x="168.536379" y="156.347965" style="fill: #ff7f0e; stroke: #ff7f0e"/>
     <use xlink:href="#mc7cd7162ad" x="168.578083" y="161.152453" style="fill: #ff7f0e; stroke: #ff7f0e"/>
     <use xlink:href="#mc7cd7162ad" x="170.565828" y="133.91109" style="fill: #ff7f0e; stroke: #ff7f0e"/>
     <use xlink:href="#mc7cd7162ad" x="169.711663" y="138.002733" style="fill: #ff7f0e; stroke: #ff7f0e"/>
     <use xlink:href="#mc7cd7162ad" x="169.753366" y="142.807221" style="fill: #ff7f0e; stroke: #ff7f0e"/>
     <use xlink:href="#mc7cd7162ad" x="171.759563" y="117.69148" style="fill: #ff7f0e; stroke: #ff7f0e"/>
     <use xlink:href="#mc7cd7162ad" x="170.913485" y="122.714903" style="fill: #ff7f0e; stroke: #ff7f0e"/>
     <use xlink:href="#mc7cd7162ad" x="170.955188" y="127.519391" style="fill: #ff7f0e; stroke: #ff7f0e"/>
     <use xlink:href="#mc7cd7162ad" x="172.684751" y="96.157952" style="fill: #ff7f0e; stroke: #ff7f0e"/>
     <use xlink:href="#mc7cd7162ad" x="172.957593" y="101.966878" style="fill: #ff7f0e; stroke: #ff7f0e"/>
     <use xlink:href="#mc7cd7162ad" x="172.100142" y="105.679986" style="fill: #ff7f0e; stroke: #ff7f0e"/>
     <use xlink:href="#mc7cd7162ad" x="172.141846" y="110.484474" style="fill: #ff7f0e; stroke: #ff7f0e"/>
     <use xlink:href="#mc7cd7162ad" x="174.120555" y="82.202138" style="fill: #ff7f0e; stroke: #ff7f0e"/>
     <use xlink:href="#mc7cd7162ad" x="173.945764" y="87.689219" style="fill: #ff7f0e; stroke: #ff7f0e"/>
     <use xlink:href="#mc7cd7162ad" x="173.309547" y="91.265698" style="fill: #ff7f0e; stroke: #ff7f0e"/>
     <use xlink:href="#mc7cd7162ad" x="175.421645" y="65.538408" style="fill: #ff7f0e; stroke: #ff7f0e"/>
     <use xlink:href="#mc7cd7162ad" x="174.462083" y="70.299836" style="fill: #ff7f0e; stroke: #ff7f0e"/>
     <use xlink:href="#mc7cd7162ad" x="174.503786" y="75.104325" style="fill: #ff7f0e; stroke: #ff7f0e"/>
     <use xlink:href="#mc7cd7162ad" x="190.335992" y="54.129414" style="fill: #ff7f0e; stroke: #ff7f0e"/>
     <use xlink:href="#mc7cd7162ad" x="191.06391" y="61.11735" style="fill: #ff7f0e; stroke: #ff7f0e"/>
     <use xlink:href="#mc7cd7162ad" x="190.88509" y="66.140361" style="fill: #ff7f0e; stroke: #ff7f0e"/>
     <use xlink:href="#mc7cd7162ad" x="192.298589" y="75.238948" style="fill: #ff7f0e; stroke: #ff7f0e"/>
     <use xlink:href="#mc7cd7162ad" x="193.254297" y="82.845506" style="fill: #ff7f0e; stroke: #ff7f0e"/>
     <use xlink:href="#mc7cd7162ad" x="194.62009" y="86.448049" style="fill: #ff7f0e; stroke: #ff7f0e"/>
     <use xlink:href="#mc7cd7162ad" x="195.127484" y="93.654508" style="fill: #ff7f0e; stroke: #ff7f0e"/>
     <use xlink:href="#mc7cd7162ad" x="196.743183" y="100.423509" style="fill: #ff7f0e; stroke: #ff7f0e"/>
     <use xlink:href="#mc7cd7162ad" x="198.125089" y="105.882332" style="fill: #ff7f0e; stroke: #ff7f0e"/>
     <use xlink:href="#mc7cd7162ad" x="199.736996" y="112.214561" style="fill: #ff7f0e; stroke: #ff7f0e"/>
     <use xlink:href="#mc7cd7162ad" x="202.016161" y="118.546379" style="fill: #ff7f0e; stroke: #ff7f0e"/>
     <use xlink:href="#mc7cd7162ad" x="203.618591" y="123.786679" style="fill: #ff7f0e; stroke: #ff7f0e"/>
     <use xlink:href="#mc7cd7162ad" x="206.122071" y="130.336746" style="fill: #ff7f0e; stroke: #ff7f0e"/>
     <use xlink:href="#mc7cd7162ad" x="208.405028" y="137.105336" style="fill: #ff7f0e; stroke: #ff7f0e"/>
     <use xlink:href="#mc7cd7162ad" x="210.459878" y="143.218905" style="fill: #ff7f0e; stroke: #ff7f0e"/>
     <use xlink:href="#mc7cd7162ad" x="213.178195" y="148.895292" style="fill: #ff7f0e; stroke: #ff7f0e"/>
     <use xlink:href="#mc7cd7162ad" x="216.567561" y="155.008039" style="fill: #ff7f0e; stroke: #ff7f0e"/>
     <use xlink:href="#mc7cd7162ad" x="221.954909" y="160.68278" style="fill: #ff7f0e; stroke: #ff7f0e"/>
     <use xlink:href="#mc7cd7162ad" x="231.177093" y="166.136771" style="fill: #ff7f0e; stroke: #ff7f0e"/>
     <use xlink:href="#mc7cd7162ad" x="242.29717" y="167.309207" style="fill: #ff7f0e; stroke: #ff7f0e"/>
     <use xlink:href="#mc7cd7162ad" x="252.672269" y="163.371846" style="fill: #ff7f0e; stroke: #ff7f0e"/>
     <use xlink:href="#mc7cd7162ad" x="258.637497" y="158.749284" style="fill: #ff7f0e; stroke: #ff7f0e"/>
     <use xlink:href="#mc7cd7162ad" x="264.59571" y="153.318695" style="fill: #ff7f0e; stroke: #ff7f0e"/>
     <use xlink:href="#mc7cd7162ad" x="270.558094" y="148.368554" style="fill: #ff7f0e; stroke: #ff7f0e"/>
     <use xlink:href="#mc7cd7162ad" x="275.850187" y="143.069408" style="fill: #ff7f0e; stroke: #ff7f0e"/>
     <use xlink:href="#mc7cd7162ad" x="281.136119" y="137.060507" style="fill: #ff7f0e; stroke: #ff7f0e"/>
     <use xlink:href="#mc7cd7162ad" x="287.095564" y="131.771869" style="fill: #ff7f0e; stroke: #ff7f0e"/>
     <use xlink:href="#mc7cd7162ad" x="297.727434" y="126.666972" style="fill: #ff7f0e; stroke: #ff7f0e"/>
     <use xlink:href="#mc7cd7162ad" x="312.415547" y="127.630734" style="fill: #ff7f0e; stroke: #ff7f0e"/>
     <use xlink:href="#mc7cd7162ad" x="323.138475" y="133.016298" style="fill: #ff7f0e; stroke: #ff7f0e"/>
     <use xlink:href="#mc7cd7162ad" x="329.856168" y="138.209768" style="fill: #ff7f0e; stroke: #ff7f0e"/>
     <use xlink:href="#mc7cd7162ad" x="337.239792" y="143.249957" style="fill: #ff7f0e; stroke: #ff7f0e"/>
     <use xlink:href="#mc7cd7162ad" x="345.287956" y="147.976714" style="fill: #ff7f0e; stroke: #ff7f0e"/>
     <use xlink:href="#mc7cd7162ad" x="356.665832" y="151.943683" style="fill: #ff7f0e; stroke: #ff7f0e"/>
     <use xlink:href="#mc7cd7162ad" x="371.333783" y="150.584613" style="fill: #ff7f0e; stroke: #ff7f0e"/>
     <use xlink:href="#mc7cd7162ad" x="384.635836" y="145.610868" style="fill: #ff7f0e; stroke: #ff7f0e"/>
     <use xlink:href="#mc7cd7162ad" x="396.603297" y="140.629121" style="fill: #ff7f0e; stroke: #ff7f0e"/>
     <use xlink:href="#mc7cd7162ad" x="409.914962" y="136.762746" style="fill: #ff7f0e; stroke: #ff7f0e"/>
     <use xlink:href="#mc7cd7162ad" x="424.588256" y="136.019127" style="fill: #ff7f0e; stroke: #ff7f0e"/>
     <use xlink:href="#mc7cd7162ad" x="439.288433" y="138.372617" style="fill: #ff7f0e; stroke: #ff7f0e"/>
     <use xlink:href="#mc7cd7162ad" x="454.000156" y="142.056275" style="fill: #ff7f0e; stroke: #ff7f0e"/>
     <use xlink:href="#mc7cd7162ad" x="468.705502" y="145.005362" style="fill: #ff7f0e; stroke: #ff7f0e"/>
     <use xlink:href="#mc7cd7162ad" x="483.389825" y="145.532352" style="fill: #ff7f0e; stroke: #ff7f0e"/>
     <use xlink:href="#mc7cd7162ad" x="498.060189" y="144.451228" style="fill: #ff7f0e; stroke: #ff7f0e"/>
     <use xlink:href="#mc7cd7162ad" x="512.717628" y="141.88111" style="fill: #ff7f0e; stroke: #ff7f0e"/>
     <use xlink:href="#mc7cd7162ad" x="527.376963" y="139.529378" style="fill: #ff7f0e; stroke: #ff7f0e"/>
     <use xlink:href="#mc7cd7162ad" x="542.054393" y="139.262237" style="fill: #ff7f0e; stroke: #ff7f0e"/>
     <use xlink:href="#mc7cd7162ad" x="556.744574" y="140.464238" style="fill: #ff7f0e; stroke: #ff7f0e"/>
     <use xlink:href="#mc7cd7162ad" x="571.43648" y="141.864771" style="fill: #ff7f0e; stroke: #ff7f0e"/>
     <use xlink:href="#mc7cd7162ad" x="586.127178" y="143.126332" style="fill: #ff7f0e; stroke: #ff7f0e"/>
     <use xlink:href="#mc7cd7162ad" x="600.810467" y="143.534202" style="fill: #ff7f0e; stroke: #ff7f0e"/>
     <use xlink:href="#mc7cd7162ad" x="615.484622" y="142.88985" style="fill: #ff7f0e; stroke: #ff7f0e"/>
     <use xlink:href="#mc7cd7162ad" x="630.156537" y="141.987405" style="fill: #ff7f0e; stroke: #ff7f0e"/>
     <use xlink:href="#mc7cd7162ad" x="644.828107" y="141.045254" style="fill: #ff7f0e; stroke: #ff7f0e"/>
     <use xlink:href="#mc7cd7162ad" x="654.832665" y="140.542754" style="fill: #ff7f0e; stroke: #ff7f0e"/>
     <use xlink:href="#mc7cd7162ad" x="180.930741" y="19.987273" style="fill: #ff7f0e; stroke: #ff7f0e"/>
     <use xlink:href="#mc7cd7162ad" x="179.948223" y="27.169255" style="fill: #ff7f0e; stroke: #ff7f0e"/>
     <use xlink:href="#mc7cd7162ad" x="177.929757" y="35.377788" style="fill: #ff7f0e; stroke: #ff7f0e"/>
     <use xlink:href="#mc7cd7162ad" x="177.024415" y="51.450951" style="fill: #ff7f0e; stroke: #ff7f0e"/>
     <use xlink:href="#mc7cd7162ad" x="175.896449" y="41.876477" style="fill: #ff7f0e; stroke: #ff7f0e"/>
     <use xlink:href="#mc7cd7162ad" x="176.050802" y="59.658839" style="fill: #ff7f0e; stroke: #ff7f0e"/>
     <use xlink:href="#mc7cd7162ad" x="189.538907" y="48.707475" style="fill: #ff7f0e; stroke: #ff7f0e"/>
     <use xlink:href="#mc7cd7162ad" x="188.437655" y="42.210718" style="fill: #ff7f0e; stroke: #ff7f0e"/>
     <use xlink:href="#mc7cd7162ad" x="187.336404" y="35.71396" style="fill: #ff7f0e; stroke: #ff7f0e"/>
     <use xlink:href="#mc7cd7162ad" x="187.280005" y="29.216558" style="fill: #ff7f0e; stroke: #ff7f0e"/>
     <use xlink:href="#mc7cd7162ad" x="185.154679" y="25.114224" style="fill: #ff7f0e; stroke: #ff7f0e"/>
    </g>
   </g>
   <g id="patch_3">
    <path d="M 45.74 212.92 
L 45.74 10.8 
" style="fill: none; stroke: #000000; stroke-width: 0.8; stroke-linejoin: miter; stroke-linecap: square"/>
   </g>
   <g id="patch_4">
    <path d="M 415.62 212.92 
L 415.62 10.8 
" style="fill: none; stroke: #000000; stroke-width: 0.8; stroke-linejoin: miter; stroke-linecap: square"/>
   </g>
   <g id="patch_5">
    <path d="M 45.74 212.92 
L 415.62 212.92 
" style="fill: none; stroke: #000000; stroke-width: 0.8; stroke-linejoin: miter; stroke-linecap: square"/>
   </g>
   <g id="patch_6">
    <path d="M 45.74 10.8 
L 415.62 10.8 
" style="fill: none; stroke: #000000; stroke-width: 0.8; stroke-linejoin: miter; stroke-linecap: square"/>
   </g>
   <g id="legend_1">
    <g id="patch_7">
     <path d="M 294.36375 47.315625 
L 408.62 47.315625 
Q 410.62 47.315625 410.62 45.315625 
L 410.62 17.8 
Q 410.62 15.8 408.62 15.8 
L 294.36375 15.8 
Q 292.36375 15.8 292.36375 17.8 
L 292.36375 45.315625 
Q 292.36375 47.315625 294.36375 47.315625 
z
" style="fill: #ffffff; opacity: 0.8; stroke: #cccccc; stroke-linejoin: miter"/>
    </g>
    <g id="line2d_16">
     <path d="M 296.36375 23.473438 
L 306.36375 23.473438 
L 316.36375 23.473438 
" style="fill: none; stroke: #1f77b4; stroke-width: 1.5; stroke-linecap: square"/>
    </g>
    <g id="text_16">
     <!-- This Code -->
     <g transform="translate(324.36375 26.973438) scale(0.1 -0.1)">
      <defs>
       <path id="Helvetica-54" d="M 3828 4591 
L 3828 4044 
L 2281 4044 
L 2281 0 
L 1650 0 
L 1650 4044 
L 103 4044 
L 103 4591 
L 3828 4591 
z
" transform="scale(0.015625)"/>
       <path id="Helvetica-68" d="M 413 4606 
L 975 4606 
L 975 2894 
Q 1175 3147 1334 3250 
Q 1606 3428 2013 3428 
Q 2741 3428 3000 2919 
Q 3141 2641 3141 2147 
L 3141 0 
L 2563 0 
L 2563 2109 
Q 2563 2478 2469 2650 
Q 2316 2925 1894 2925 
Q 1544 2925 1259 2684 
Q 975 2444 975 1775 
L 975 0 
L 413 0 
L 413 4606 
z
" transform="scale(0.015625)"/>
       <path id="Helvetica-43" d="M 2422 4716 
Q 3294 4716 3775 4256 
Q 4256 3797 4309 3213 
L 3703 3213 
Q 3600 3656 3292 3915 
Q 2984 4175 2428 4175 
Q 1750 4175 1333 3698 
Q 916 3222 916 2238 
Q 916 1431 1292 929 
Q 1669 428 2416 428 
Q 3103 428 3463 956 
Q 3653 1234 3747 1688 
L 4353 1688 
Q 4272 963 3816 472 
Q 3269 -119 2341 -119 
Q 1541 -119 997 366 
Q 281 1006 281 2344 
Q 281 3359 819 4009 
Q 1400 4716 2422 4716 
z
M 2297 4716 
L 2297 4716 
z
" transform="scale(0.015625)"/>
       <path id="Helvetica-6f" d="M 1741 363 
Q 2300 363 2508 786 
Q 2716 1209 2716 1728 
Q 2716 2197 2566 2491 
Q 2328 2953 1747 2953 
Q 1231 2953 997 2559 
Q 763 2166 763 1609 
Q 763 1075 997 719 
Q 1231 363 1741 363 
z
M 1763 3444 
Q 2409 3444 2856 3012 
Q 3303 2581 3303 1744 
Q 3303 934 2909 406 
Q 2516 -122 1688 -122 
Q 997 -122 590 345 
Q 184 813 184 1600 
Q 184 2444 612 2944 
Q 1041 3444 1763 3444 
z
M 1744 3428 
L 1744 3428 
z
" transform="scale(0.015625)"/>
       <path id="Helvetica-64" d="M 769 1634 
Q 769 1097 997 734 
Q 1225 372 1728 372 
Q 2119 372 2370 708 
Q 2622 1044 2622 1672 
Q 2622 2306 2362 2611 
Q 2103 2916 1722 2916 
Q 1297 2916 1033 2591 
Q 769 2266 769 1634 
z
M 1616 3406 
Q 2000 3406 2259 3244 
Q 2409 3150 2600 2916 
L 2600 4606 
L 3141 4606 
L 3141 0 
L 2634 0 
L 2634 466 
Q 2438 156 2169 18 
Q 1900 -119 1553 -119 
Q 994 -119 584 351 
Q 175 822 175 1603 
Q 175 2334 548 2870 
Q 922 3406 1616 3406 
z
" transform="scale(0.015625)"/>
      </defs>
      <use xlink:href="#Helvetica-54"/>
      <use xlink:href="#Helvetica-68" x="61.083984"/>
      <use xlink:href="#Helvetica-69" x="116.699219"/>
      <use xlink:href="#Helvetica-73" x="138.916016"/>
      <use xlink:href="#Helvetica-20" x="188.916016"/>
      <use xlink:href="#Helvetica-43" x="216.699219"/>
      <use xlink:href="#Helvetica-6f" x="288.916016"/>
      <use xlink:href="#Helvetica-64" x="344.53125"/>
      <use xlink:href="#Helvetica-65" x="400.146484"/>
     </g>
    </g>
    <g id="line2d_17">
     <g>
      <use xlink:href="#mc7cd7162ad" x="306.36375" y="37.73125" style="fill: #ff7f0e; stroke: #ff7f0e"/>
     </g>
    </g>
    <g id="text_17">
     <!-- Experimental Data -->
     <g transform="translate(324.36375 41.23125) scale(0.1 -0.1)">
      <defs>
       <path id="Helvetica-45" d="M 547 4591 
L 3894 4591 
L 3894 4028 
L 1153 4028 
L 1153 2634 
L 3688 2634 
L 3688 2103 
L 1153 2103 
L 1153 547 
L 3941 547 
L 3941 0 
L 547 0 
L 547 4591 
z
M 2244 4591 
L 2244 4591 
z
" transform="scale(0.015625)"/>
       <path id="Helvetica-78" d="M 94 3347 
L 822 3347 
L 1591 2169 
L 2369 3347 
L 3053 3331 
L 1925 1716 
L 3103 0 
L 2384 0 
L 1553 1256 
L 747 0 
L 34 0 
L 1213 1716 
L 94 3347 
z
" transform="scale(0.015625)"/>
       <path id="Helvetica-70" d="M 1825 378 
Q 2219 378 2480 708 
Q 2741 1038 2741 1694 
Q 2741 2094 2625 2381 
Q 2406 2934 1825 2934 
Q 1241 2934 1025 2350 
Q 909 2038 909 1556 
Q 909 1169 1025 897 
Q 1244 378 1825 378 
z
M 369 3331 
L 916 3331 
L 916 2888 
Q 1084 3116 1284 3241 
Q 1569 3428 1953 3428 
Q 2522 3428 2919 2992 
Q 3316 2556 3316 1747 
Q 3316 653 2744 184 
Q 2381 -113 1900 -113 
Q 1522 -113 1266 53 
Q 1116 147 931 375 
L 931 -1334 
L 369 -1334 
L 369 3331 
z
" transform="scale(0.015625)"/>
       <path id="Helvetica-6d" d="M 413 3347 
L 969 3347 
L 969 2872 
Q 1169 3119 1331 3231 
Q 1609 3422 1963 3422 
Q 2363 3422 2606 3225 
Q 2744 3113 2856 2894 
Q 3044 3163 3297 3292 
Q 3550 3422 3866 3422 
Q 4541 3422 4784 2934 
Q 4916 2672 4916 2228 
L 4916 0 
L 4331 0 
L 4331 2325 
Q 4331 2659 4164 2784 
Q 3997 2909 3756 2909 
Q 3425 2909 3186 2687 
Q 2947 2466 2947 1947 
L 2947 0 
L 2375 0 
L 2375 2184 
Q 2375 2525 2294 2681 
Q 2166 2916 1816 2916 
Q 1497 2916 1236 2669 
Q 975 2422 975 1775 
L 975 0 
L 413 0 
L 413 3347 
z
" transform="scale(0.015625)"/>
       <path id="Helvetica-6c" d="M 428 4591 
L 991 4591 
L 991 0 
L 428 0 
L 428 4591 
z
" transform="scale(0.015625)"/>
      </defs>
      <use xlink:href="#Helvetica-45"/>
      <use xlink:href="#Helvetica-78" x="66.699219"/>
      <use xlink:href="#Helvetica-70" x="116.699219"/>
      <use xlink:href="#Helvetica-65" x="172.314453"/>
      <use xlink:href="#Helvetica-72" x="227.929688"/>
      <use xlink:href="#Helvetica-69" x="261.230469"/>
      <use xlink:href="#Helvetica-6d" x="283.447266"/>
      <use xlink:href="#Helvetica-65" x="366.748047"/>
      <use xlink:href="#Helvetica-6e" x="422.363281"/>
      <use xlink:href="#Helvetica-74" x="477.978516"/>
      <use xlink:href="#Helvetica-61" x="505.761719"/>
      <use xlink:href="#Helvetica-6c" x="561.376953"/>
      <use xlink:href="#Helvetica-20" x="583.59375"/>
      <use xlink:href="#Helvetica-44" x="611.376953"/>
      <use xlink:href="#Helvetica-61" x="683.59375"/>
      <use xlink:href="#Helvetica-74" x="739.208984"/>
      <use xlink:href="#Helvetica-61" x="766.992188"/>
     </g>
    </g>
   </g>
  </g>
 </g>
 <defs>
  <clipPath id="p58e0bf3075">
   <rect x="45.74" y="10.8" width="369.88" height="202.12"/>
  </clipPath>
 </defs>
</svg>
