<?xml version="1.0" encoding="utf-8" standalone="no"?>
<!DOCTYPE svg PUBLIC "-//W3C//DTD SVG 1.1//EN"
  "http://www.w3.org/Graphics/SVG/1.1/DTD/svg11.dtd">
<svg xmlns:xlink="http://www.w3.org/1999/xlink" width="432pt" height="180pt" viewBox="0 0 432 180" xmlns="http://www.w3.org/2000/svg" version="1.1">
 <metadata>
  <rdf:RDF xmlns:dc="http://purl.org/dc/elements/1.1/" xmlns:cc="http://creativecommons.org/ns#" xmlns:rdf="http://www.w3.org/1999/02/22-rdf-syntax-ns#">
   <cc:Work>
    <dc:type rdf:resource="http://purl.org/dc/dcmitype/StillImage"/>
    <dc:date>2023-12-13T19:17:10.777719</dc:date>
    <dc:format>image/svg+xml</dc:format>
    <dc:creator>
     <cc:Agent>
      <dc:title>Matplotlib v3.7.2, https://matplotlib.org/</dc:title>
     </cc:Agent>
    </dc:creator>
   </cc:Work>
  </rdf:RDF>
 </metadata>
 <defs>
  <style type="text/css">*{stroke-linejoin: round; stroke-linecap: butt}</style>
 </defs>
 <g id="figure_1">
  <g id="patch_1">
   <path d="M 0 180 
L 432 180 
L 432 0 
L 0 0 
z
" style="fill: #ffffff"/>
  </g>
  <g id="axes_1">
   <g id="patch_2">
    <path d="M 48.62 138.04 
L 421.2 138.04 
L 421.2 10.8 
L 48.62 10.8 
z
" style="fill: #ffffff"/>
   </g>
   <g id="matplotlib.axis_1">
    <g id="xtick_1">
     <g id="line2d_1">
      <defs>
       <path id="m090ec53a63" d="M 0 0 
L 0 3.5 
" style="stroke: #000000; stroke-width: 0.8"/>
      </defs>
      <g>
       <use xlink:href="#m090ec53a63" x="65.555455" y="138.04" style="stroke: #000000; stroke-width: 0.8"/>
      </g>
     </g>
     <g id="text_1">
      <!-- 0 -->
      <g transform="translate(62.774986 152.213437) scale(0.1 -0.1)">
       <defs>
        <path id="Helvetica-30" d="M 1731 4475 
Q 2600 4475 2988 3759 
Q 3288 3206 3288 2244 
Q 3288 1331 3016 734 
Q 2622 -122 1728 -122 
Q 922 -122 528 578 
Q 200 1163 200 2147 
Q 200 2909 397 3456 
Q 766 4475 1731 4475 
z
M 1725 391 
Q 2163 391 2422 778 
Q 2681 1166 2681 2222 
Q 2681 2984 2493 3476 
Q 2306 3969 1766 3969 
Q 1269 3969 1039 3501 
Q 809 3034 809 2125 
Q 809 1441 956 1025 
Q 1181 391 1725 391 
z
" transform="scale(0.015625)"/>
       </defs>
       <use xlink:href="#Helvetica-30"/>
      </g>
     </g>
    </g>
    <g id="xtick_2">
     <g id="line2d_2">
      <g>
       <use xlink:href="#m090ec53a63" x="107.894091" y="138.04" style="stroke: #000000; stroke-width: 0.8"/>
      </g>
     </g>
     <g id="text_2">
      <!-- 2500 -->
      <g transform="translate(96.772216 152.213437) scale(0.1 -0.1)">
       <defs>
        <path id="Helvetica-32" d="M 200 0 
Q 231 578 439 1006 
Q 647 1434 1250 1784 
L 1850 2131 
Q 2253 2366 2416 2531 
Q 2672 2791 2672 3125 
Q 2672 3516 2437 3745 
Q 2203 3975 1813 3975 
Q 1234 3975 1013 3538 
Q 894 3303 881 2888 
L 309 2888 
Q 319 3472 525 3841 
Q 891 4491 1816 4491 
Q 2584 4491 2939 4075 
Q 3294 3659 3294 3150 
Q 3294 2613 2916 2231 
Q 2697 2009 2131 1694 
L 1703 1456 
Q 1397 1288 1222 1134 
Q 909 863 828 531 
L 3272 531 
L 3272 0 
L 200 0 
z
" transform="scale(0.015625)"/>
        <path id="Helvetica-35" d="M 791 1141 
Q 847 659 1238 475 
Q 1438 381 1700 381 
Q 2200 381 2440 700 
Q 2681 1019 2681 1406 
Q 2681 1875 2395 2131 
Q 2109 2388 1709 2388 
Q 1419 2388 1211 2275 
Q 1003 2163 856 1963 
L 369 1991 
L 709 4400 
L 3034 4400 
L 3034 3856 
L 1131 3856 
L 941 2613 
Q 1097 2731 1238 2791 
Q 1488 2894 1816 2894 
Q 2431 2894 2859 2497 
Q 3288 2100 3288 1491 
Q 3288 856 2895 371 
Q 2503 -113 1644 -113 
Q 1097 -113 676 195 
Q 256 503 206 1141 
L 791 1141 
z
" transform="scale(0.015625)"/>
       </defs>
       <use xlink:href="#Helvetica-32"/>
       <use xlink:href="#Helvetica-35" x="55.615234"/>
       <use xlink:href="#Helvetica-30" x="111.230469"/>
       <use xlink:href="#Helvetica-30" x="166.845703"/>
      </g>
     </g>
    </g>
    <g id="xtick_3">
     <g id="line2d_3">
      <g>
       <use xlink:href="#m090ec53a63" x="150.232727" y="138.04" style="stroke: #000000; stroke-width: 0.8"/>
      </g>
     </g>
     <g id="text_3">
      <!-- 5000 -->
      <g transform="translate(139.110852 152.213437) scale(0.1 -0.1)">
       <use xlink:href="#Helvetica-35"/>
       <use xlink:href="#Helvetica-30" x="55.615234"/>
       <use xlink:href="#Helvetica-30" x="111.230469"/>
       <use xlink:href="#Helvetica-30" x="166.845703"/>
      </g>
     </g>
    </g>
    <g id="xtick_4">
     <g id="line2d_4">
      <g>
       <use xlink:href="#m090ec53a63" x="192.571364" y="138.04" style="stroke: #000000; stroke-width: 0.8"/>
      </g>
     </g>
     <g id="text_4">
      <!-- 7500 -->
      <g transform="translate(181.449489 152.213437) scale(0.1 -0.1)">
       <defs>
        <path id="Helvetica-37" d="M 3347 4400 
L 3347 3909 
Q 3131 3700 2773 3181 
Q 2416 2663 2141 2063 
Q 1869 1478 1728 997 
Q 1638 688 1494 0 
L 872 0 
Q 1084 1281 1809 2550 
Q 2238 3294 2709 3834 
L 234 3834 
L 234 4400 
L 3347 4400 
z
" transform="scale(0.015625)"/>
       </defs>
       <use xlink:href="#Helvetica-37"/>
       <use xlink:href="#Helvetica-35" x="55.615234"/>
       <use xlink:href="#Helvetica-30" x="111.230469"/>
       <use xlink:href="#Helvetica-30" x="166.845703"/>
      </g>
     </g>
    </g>
    <g id="xtick_5">
     <g id="line2d_5">
      <g>
       <use xlink:href="#m090ec53a63" x="234.91" y="138.04" style="stroke: #000000; stroke-width: 0.8"/>
      </g>
     </g>
     <g id="text_5">
      <!-- 10000 -->
      <g transform="translate(221.007656 152.213437) scale(0.1 -0.1)">
       <defs>
        <path id="Helvetica-31" d="M 613 3169 
L 613 3600 
Q 1222 3659 1462 3798 
Q 1703 3938 1822 4456 
L 2266 4456 
L 2266 0 
L 1666 0 
L 1666 3169 
L 613 3169 
z
" transform="scale(0.015625)"/>
       </defs>
       <use xlink:href="#Helvetica-31"/>
       <use xlink:href="#Helvetica-30" x="55.615234"/>
       <use xlink:href="#Helvetica-30" x="111.230469"/>
       <use xlink:href="#Helvetica-30" x="166.845703"/>
       <use xlink:href="#Helvetica-30" x="222.460938"/>
      </g>
     </g>
    </g>
    <g id="xtick_6">
     <g id="line2d_6">
      <g>
       <use xlink:href="#m090ec53a63" x="277.248636" y="138.04" style="stroke: #000000; stroke-width: 0.8"/>
      </g>
     </g>
     <g id="text_6">
      <!-- 12500 -->
      <g transform="translate(263.346293 152.213437) scale(0.1 -0.1)">
       <use xlink:href="#Helvetica-31"/>
       <use xlink:href="#Helvetica-32" x="55.615234"/>
       <use xlink:href="#Helvetica-35" x="111.230469"/>
       <use xlink:href="#Helvetica-30" x="166.845703"/>
       <use xlink:href="#Helvetica-30" x="222.460938"/>
      </g>
     </g>
    </g>
    <g id="xtick_7">
     <g id="line2d_7">
      <g>
       <use xlink:href="#m090ec53a63" x="319.587273" y="138.04" style="stroke: #000000; stroke-width: 0.8"/>
      </g>
     </g>
     <g id="text_7">
      <!-- 15000 -->
      <g transform="translate(305.684929 152.213437) scale(0.1 -0.1)">
       <use xlink:href="#Helvetica-31"/>
       <use xlink:href="#Helvetica-35" x="55.615234"/>
       <use xlink:href="#Helvetica-30" x="111.230469"/>
       <use xlink:href="#Helvetica-30" x="166.845703"/>
       <use xlink:href="#Helvetica-30" x="222.460938"/>
      </g>
     </g>
    </g>
    <g id="xtick_8">
     <g id="line2d_8">
      <g>
       <use xlink:href="#m090ec53a63" x="361.925909" y="138.04" style="stroke: #000000; stroke-width: 0.8"/>
      </g>
     </g>
     <g id="text_8">
      <!-- 17500 -->
      <g transform="translate(348.023565 152.213437) scale(0.1 -0.1)">
       <use xlink:href="#Helvetica-31"/>
       <use xlink:href="#Helvetica-37" x="55.615234"/>
       <use xlink:href="#Helvetica-35" x="111.230469"/>
       <use xlink:href="#Helvetica-30" x="166.845703"/>
       <use xlink:href="#Helvetica-30" x="222.460938"/>
      </g>
     </g>
    </g>
    <g id="xtick_9">
     <g id="line2d_9">
      <g>
       <use xlink:href="#m090ec53a63" x="404.264545" y="138.04" style="stroke: #000000; stroke-width: 0.8"/>
      </g>
     </g>
     <g id="text_9">
      <!-- 20000 -->
      <g transform="translate(390.362202 152.213437) scale(0.1 -0.1)">
       <use xlink:href="#Helvetica-32"/>
       <use xlink:href="#Helvetica-30" x="55.615234"/>
       <use xlink:href="#Helvetica-30" x="111.230469"/>
       <use xlink:href="#Helvetica-30" x="166.845703"/>
       <use xlink:href="#Helvetica-30" x="222.460938"/>
      </g>
     </g>
    </g>
    <g id="text_10">
     <!-- Time (fs) -->
     <g transform="translate(215.192031 165.544688) scale(0.1 -0.1)">
      <defs>
       <path id="Helvetica-54" d="M 3828 4591 
L 3828 4044 
L 2281 4044 
L 2281 0 
L 1650 0 
L 1650 4044 
L 103 4044 
L 103 4591 
L 3828 4591 
z
" transform="scale(0.015625)"/>
       <path id="Helvetica-69" d="M 413 3331 
L 984 3331 
L 984 0 
L 413 0 
L 413 3331 
z
M 413 4591 
L 984 4591 
L 984 3953 
L 413 3953 
L 413 4591 
z
" transform="scale(0.015625)"/>
       <path id="Helvetica-6d" d="M 413 3347 
L 969 3347 
L 969 2872 
Q 1169 3119 1331 3231 
Q 1609 3422 1963 3422 
Q 2363 3422 2606 3225 
Q 2744 3113 2856 2894 
Q 3044 3163 3297 3292 
Q 3550 3422 3866 3422 
Q 4541 3422 4784 2934 
Q 4916 2672 4916 2228 
L 4916 0 
L 4331 0 
L 4331 2325 
Q 4331 2659 4164 2784 
Q 3997 2909 3756 2909 
Q 3425 2909 3186 2687 
Q 2947 2466 2947 1947 
L 2947 0 
L 2375 0 
L 2375 2184 
Q 2375 2525 2294 2681 
Q 2166 2916 1816 2916 
Q 1497 2916 1236 2669 
Q 975 2422 975 1775 
L 975 0 
L 413 0 
L 413 3347 
z
" transform="scale(0.015625)"/>
       <path id="Helvetica-65" d="M 1806 3422 
Q 2163 3422 2497 3255 
Q 2831 3088 3006 2822 
Q 3175 2569 3231 2231 
Q 3281 2000 3281 1494 
L 828 1494 
Q 844 984 1069 676 
Q 1294 369 1766 369 
Q 2206 369 2469 659 
Q 2619 828 2681 1050 
L 3234 1050 
Q 3213 866 3089 639 
Q 2966 413 2813 269 
Q 2556 19 2178 -69 
Q 1975 -119 1719 -119 
Q 1094 -119 659 336 
Q 225 791 225 1609 
Q 225 2416 662 2919 
Q 1100 3422 1806 3422 
z
M 2703 1941 
Q 2669 2306 2544 2525 
Q 2313 2931 1772 2931 
Q 1384 2931 1121 2651 
Q 859 2372 844 1941 
L 2703 1941 
z
M 1753 3428 
L 1753 3428 
z
" transform="scale(0.015625)"/>
       <path id="Helvetica-20" transform="scale(0.015625)"/>
       <path id="Helvetica-28" d="M 1894 4666 
Q 1403 3713 1256 3263 
Q 1034 2578 1034 1681 
Q 1034 775 1288 25 
Q 1444 -438 1903 -1306 
L 1525 -1306 
Q 1069 -594 959 -397 
Q 850 -200 722 138 
Q 547 600 478 1125 
Q 444 1397 444 1644 
Q 444 2569 734 3291 
Q 919 3750 1503 4666 
L 1894 4666 
z
" transform="scale(0.015625)"/>
       <path id="Helvetica-66" d="M 553 3856 
Q 566 4206 675 4369 
Q 872 4656 1434 4656 
Q 1488 4656 1544 4653 
Q 1600 4650 1672 4644 
L 1672 4131 
Q 1584 4138 1545 4139 
Q 1506 4141 1472 4141 
Q 1216 4141 1166 4008 
Q 1116 3875 1116 3331 
L 1672 3331 
L 1672 2888 
L 1109 2888 
L 1109 0 
L 553 0 
L 553 2888 
L 88 2888 
L 88 3331 
L 553 3331 
L 553 3856 
z
" transform="scale(0.015625)"/>
       <path id="Helvetica-73" d="M 747 1050 
Q 772 769 888 619 
Q 1100 347 1625 347 
Q 1938 347 2175 483 
Q 2413 619 2413 903 
Q 2413 1119 2222 1231 
Q 2100 1300 1741 1391 
L 1294 1503 
Q 866 1609 663 1741 
Q 300 1969 300 2372 
Q 300 2847 642 3140 
Q 984 3434 1563 3434 
Q 2319 3434 2653 2991 
Q 2863 2709 2856 2384 
L 2325 2384 
Q 2309 2575 2191 2731 
Q 1997 2953 1519 2953 
Q 1200 2953 1036 2831 
Q 872 2709 872 2509 
Q 872 2291 1088 2159 
Q 1213 2081 1456 2022 
L 1828 1931 
Q 2434 1784 2641 1647 
Q 2969 1431 2969 969 
Q 2969 522 2630 197 
Q 2291 -128 1597 -128 
Q 850 -128 539 211 
Q 228 550 206 1050 
L 747 1050 
z
M 1578 3428 
L 1578 3428 
z
" transform="scale(0.015625)"/>
       <path id="Helvetica-29" d="M 222 -1306 
Q 719 -338 863 106 
Q 1081 778 1081 1681 
Q 1081 2584 828 3334 
Q 672 3797 213 4666 
L 591 4666 
Q 1072 3897 1173 3717 
Q 1275 3538 1394 3222 
Q 1544 2831 1608 2450 
Q 1672 2069 1672 1716 
Q 1672 791 1378 66 
Q 1194 -400 613 -1306 
L 222 -1306 
z
" transform="scale(0.015625)"/>
      </defs>
      <use xlink:href="#Helvetica-54"/>
      <use xlink:href="#Helvetica-69" x="61.083984"/>
      <use xlink:href="#Helvetica-6d" x="83.300781"/>
      <use xlink:href="#Helvetica-65" x="166.601562"/>
      <use xlink:href="#Helvetica-20" x="222.216797"/>
      <use xlink:href="#Helvetica-28" x="250"/>
      <use xlink:href="#Helvetica-66" x="283.300781"/>
      <use xlink:href="#Helvetica-73" x="311.083984"/>
      <use xlink:href="#Helvetica-29" x="361.083984"/>
     </g>
    </g>
   </g>
   <g id="matplotlib.axis_2">
    <g id="ytick_1">
     <g id="line2d_10">
      <defs>
       <path id="m305b19a2ad" d="M 0 0 
L -3.5 0 
" style="stroke: #000000; stroke-width: 0.8"/>
      </defs>
      <g>
       <use xlink:href="#m305b19a2ad" x="48.62" y="116.258433" style="stroke: #000000; stroke-width: 0.8"/>
      </g>
     </g>
     <g id="text_11">
      <!-- 100 -->
      <g transform="translate(24.937188 119.845151) scale(0.1 -0.1)">
       <use xlink:href="#Helvetica-31"/>
       <use xlink:href="#Helvetica-30" x="55.615234"/>
       <use xlink:href="#Helvetica-30" x="111.230469"/>
      </g>
     </g>
    </g>
    <g id="ytick_2">
     <g id="line2d_11">
      <g>
       <use xlink:href="#m305b19a2ad" x="48.62" y="76.543772" style="stroke: #000000; stroke-width: 0.8"/>
      </g>
     </g>
     <g id="text_12">
      <!-- 150 -->
      <g transform="translate(24.937188 80.130491) scale(0.1 -0.1)">
       <use xlink:href="#Helvetica-31"/>
       <use xlink:href="#Helvetica-35" x="55.615234"/>
       <use xlink:href="#Helvetica-30" x="111.230469"/>
      </g>
     </g>
    </g>
    <g id="ytick_3">
     <g id="line2d_12">
      <g>
       <use xlink:href="#m305b19a2ad" x="48.62" y="36.829112" style="stroke: #000000; stroke-width: 0.8"/>
      </g>
     </g>
     <g id="text_13">
      <!-- 200 -->
      <g transform="translate(24.937188 40.415831) scale(0.1 -0.1)">
       <use xlink:href="#Helvetica-32"/>
       <use xlink:href="#Helvetica-30" x="55.615234"/>
       <use xlink:href="#Helvetica-30" x="111.230469"/>
      </g>
     </g>
    </g>
    <g id="text_14">
     <!-- Temperature (K) -->
     <g transform="translate(18.852813 111.094219) rotate(-90) scale(0.1 -0.1)">
      <defs>
       <path id="Helvetica-70" d="M 1825 378 
Q 2219 378 2480 708 
Q 2741 1038 2741 1694 
Q 2741 2094 2625 2381 
Q 2406 2934 1825 2934 
Q 1241 2934 1025 2350 
Q 909 2038 909 1556 
Q 909 1169 1025 897 
Q 1244 378 1825 378 
z
M 369 3331 
L 916 3331 
L 916 2888 
Q 1084 3116 1284 3241 
Q 1569 3428 1953 3428 
Q 2522 3428 2919 2992 
Q 3316 2556 3316 1747 
Q 3316 653 2744 184 
Q 2381 -113 1900 -113 
Q 1522 -113 1266 53 
Q 1116 147 931 375 
L 931 -1334 
L 369 -1334 
L 369 3331 
z
" transform="scale(0.015625)"/>
       <path id="Helvetica-72" d="M 428 3347 
L 963 3347 
L 963 2769 
Q 1028 2938 1284 3180 
Q 1541 3422 1875 3422 
Q 1891 3422 1928 3419 
Q 1966 3416 2056 3406 
L 2056 2813 
Q 2006 2822 1964 2825 
Q 1922 2828 1872 2828 
Q 1447 2828 1219 2554 
Q 991 2281 991 1925 
L 991 0 
L 428 0 
L 428 3347 
z
" transform="scale(0.015625)"/>
       <path id="Helvetica-61" d="M 844 891 
Q 844 647 1022 506 
Q 1200 366 1444 366 
Q 1741 366 2019 503 
Q 2488 731 2488 1250 
L 2488 1703 
Q 2384 1638 2221 1594 
Q 2059 1550 1903 1531 
L 1563 1488 
Q 1256 1447 1103 1359 
Q 844 1213 844 891 
z
M 2206 2028 
Q 2400 2053 2466 2191 
Q 2503 2266 2503 2406 
Q 2503 2694 2298 2823 
Q 2094 2953 1713 2953 
Q 1272 2953 1088 2716 
Q 984 2584 953 2325 
L 428 2325 
Q 444 2944 830 3186 
Q 1216 3428 1725 3428 
Q 2316 3428 2684 3203 
Q 3050 2978 3050 2503 
L 3050 575 
Q 3050 488 3086 434 
Q 3122 381 3238 381 
Q 3275 381 3322 386 
Q 3369 391 3422 400 
L 3422 -16 
Q 3291 -53 3222 -62 
Q 3153 -72 3034 -72 
Q 2744 -72 2613 134 
Q 2544 244 2516 444 
Q 2344 219 2022 53 
Q 1700 -113 1313 -113 
Q 847 -113 551 170 
Q 256 453 256 878 
Q 256 1344 547 1600 
Q 838 1856 1309 1916 
L 2206 2028 
z
M 1741 3428 
L 1741 3428 
z
" transform="scale(0.015625)"/>
       <path id="Helvetica-74" d="M 525 4281 
L 1094 4281 
L 1094 3347 
L 1628 3347 
L 1628 2888 
L 1094 2888 
L 1094 703 
Q 1094 528 1213 469 
Q 1278 434 1431 434 
Q 1472 434 1519 436 
Q 1566 438 1628 444 
L 1628 0 
Q 1531 -28 1426 -40 
Q 1322 -53 1200 -53 
Q 806 -53 665 148 
Q 525 350 525 672 
L 525 2888 
L 72 2888 
L 72 3347 
L 525 3347 
L 525 4281 
z
" transform="scale(0.015625)"/>
       <path id="Helvetica-75" d="M 975 3347 
L 975 1125 
Q 975 869 1056 706 
Q 1206 406 1616 406 
Q 2203 406 2416 931 
Q 2531 1213 2531 1703 
L 2531 3347 
L 3094 3347 
L 3094 0 
L 2563 0 
L 2569 494 
Q 2459 303 2297 172 
Q 1975 -91 1516 -91 
Q 800 -91 541 388 
Q 400 644 400 1072 
L 400 3347 
L 975 3347 
z
M 1747 3428 
L 1747 3428 
z
" transform="scale(0.015625)"/>
       <path id="Helvetica-4b" d="M 488 4591 
L 1094 4591 
L 1094 2353 
L 3331 4591 
L 4191 4591 
L 2281 2741 
L 4244 0 
L 3434 0 
L 1828 2303 
L 1094 1600 
L 1094 0 
L 488 0 
L 488 4591 
z
" transform="scale(0.015625)"/>
      </defs>
      <use xlink:href="#Helvetica-54"/>
      <use xlink:href="#Helvetica-65" x="61.083984"/>
      <use xlink:href="#Helvetica-6d" x="116.699219"/>
      <use xlink:href="#Helvetica-70" x="200"/>
      <use xlink:href="#Helvetica-65" x="255.615234"/>
      <use xlink:href="#Helvetica-72" x="311.230469"/>
      <use xlink:href="#Helvetica-61" x="344.53125"/>
      <use xlink:href="#Helvetica-74" x="400.146484"/>
      <use xlink:href="#Helvetica-75" x="427.929688"/>
      <use xlink:href="#Helvetica-72" x="483.544922"/>
      <use xlink:href="#Helvetica-65" x="516.845703"/>
      <use xlink:href="#Helvetica-20" x="572.460938"/>
      <use xlink:href="#Helvetica-28" x="600.244141"/>
      <use xlink:href="#Helvetica-4b" x="633.544922"/>
      <use xlink:href="#Helvetica-29" x="700.244141"/>
     </g>
    </g>
   </g>
   <g id="line2d_13">
    <path d="M 65.555455 129.969694 
L 65.894164 132.049767 
L 66.063518 131.102727 
L 66.232873 127.875012 
L 66.571582 112.544537 
L 67.757064 31.713661 
L 68.095773 21.814731 
L 68.434482 17.124036 
L 68.603836 16.583636 
L 68.773191 17.366661 
L 68.942545 19.584617 
L 69.281255 28.326439 
L 70.466736 69.830096 
L 70.9748 77.777311 
L 74.192536 110.06984 
L 74.7006 112.996908 
L 75.039309 113.887093 
L 75.886082 114.965439 
L 76.394145 115.430346 
L 76.902209 115.72018 
L 77.240918 116.300197 
L 77.579627 117.344807 
L 78.257045 120.495651 
L 78.934464 123.165465 
L 79.442527 124.083277 
L 80.119945 125.07721 
L 80.628009 125.809918 
L 80.797364 125.864119 
L 81.136073 125.57912 
L 82.1522 124.003436 
L 82.490909 123.974744 
L 82.829618 124.322124 
L 83.337682 125.471687 
L 83.845745 126.604185 
L 84.0151 126.682004 
L 84.184455 126.524643 
L 84.523164 125.624773 
L 85.031227 124.305858 
L 85.200582 124.248165 
L 85.369936 124.426398 
L 85.708645 125.307304 
L 86.386064 127.191068 
L 86.724773 127.563516 
L 87.063482 127.52319 
L 87.402191 127.145822 
L 88.248964 126.017926 
L 89.265091 125.180348 
L 89.6038 125.05571 
L 89.942509 125.198231 
L 90.450573 125.882802 
L 91.127991 126.760205 
L 91.4667 127.183845 
L 91.974764 128.325386 
L 92.482827 129.518996 
L 92.652182 129.698588 
L 92.821536 129.704413 
L 92.990891 129.531233 
L 93.3296 128.721119 
L 94.515082 124.736708 
L 94.684436 124.537456 
L 94.853791 124.525014 
L 95.023145 124.70626 
L 95.361855 125.575749 
L 96.208627 128.235253 
L 96.716691 129.017487 
L 97.732818 130.071619 
L 98.071527 130.229909 
L 98.410236 130.175234 
L 98.9183 129.71993 
L 99.426364 129.341516 
L 99.934427 129.108032 
L 100.273136 128.698067 
L 101.119909 127.424906 
L 101.458618 127.387642 
L 101.797327 127.688784 
L 102.474745 128.531336 
L 102.813455 128.619302 
L 103.152164 128.374155 
L 103.660227 127.982122 
L 104.337645 127.929632 
L 104.676355 127.426499 
L 105.523127 125.614709 
L 105.692482 125.592952 
L 106.031191 126.013461 
L 107.386027 128.842694 
L 108.571509 129.759716 
L 108.910218 129.910191 
L 109.079573 129.856732 
L 109.418282 129.363698 
L 109.926345 127.761457 
L 110.603764 125.541212 
L 110.942473 124.933524 
L 111.281182 124.693963 
L 111.619891 124.797009 
L 111.9586 125.247369 
L 112.466664 126.506956 
L 113.313436 128.976613 
L 113.652145 129.361996 
L 113.8215 129.339185 
L 114.160209 128.978459 
L 114.668273 128.307788 
L 115.006982 128.204561 
L 115.345691 128.523797 
L 116.023109 129.63413 
L 116.192464 129.722572 
L 116.361818 129.670568 
L 116.700527 129.215389 
L 117.5473 127.708287 
L 117.886009 127.41956 
L 118.224718 127.419182 
L 118.563427 127.769025 
L 119.240845 129.130022 
L 119.748909 129.983166 
L 120.256973 130.381721 
L 120.595682 130.274458 
L 120.934391 129.665363 
L 122.289227 125.748457 
L 122.458582 125.66731 
L 122.627936 125.769519 
L 122.966645 126.550867 
L 123.982773 129.92751 
L 124.321482 130.284429 
L 124.660191 130.353849 
L 125.168255 130.217029 
L 125.506964 129.928347 
L 126.015027 129.078046 
L 126.8618 127.561093 
L 127.200509 127.369636 
L 127.539218 127.580644 
L 128.385991 128.695948 
L 128.7247 128.762825 
L 129.402118 128.6397 
L 129.740827 128.809314 
L 130.418245 129.249464 
L 130.756955 129.034824 
L 131.265018 128.067756 
L 131.773082 127.050076 
L 132.111791 126.865695 
L 132.4505 127.226276 
L 132.958564 128.411644 
L 133.635982 129.910028 
L 133.805336 130.006048 
L 133.974691 129.913853 
L 134.3134 129.225709 
L 134.990818 127.644818 
L 136.1763 126.157589 
L 136.515009 125.761114 
L 136.853718 125.742641 
L 137.192427 126.145305 
L 138.547264 128.491769 
L 139.9021 130.224329 
L 140.240809 130.030268 
L 140.748873 129.22343 
L 141.256936 128.368387 
L 141.595645 128.133354 
L 141.934355 128.263491 
L 142.442418 128.949473 
L 143.119836 129.954204 
L 143.289191 130.010577 
L 143.458545 129.932683 
L 143.797255 129.263651 
L 144.813382 125.944552 
L 145.152091 125.776455 
L 145.4908 126.120576 
L 145.998864 127.219468 
L 146.676282 128.719988 
L 147.014991 128.998134 
L 147.184345 128.929636 
L 147.523055 128.298588 
L 148.539182 125.104174 
L 148.708536 125.007329 
L 148.877891 125.098371 
L 149.2166 125.71304 
L 150.402082 128.528604 
L 150.740791 128.773458 
L 151.248855 128.650599 
L 151.587564 128.654592 
L 151.926273 128.885311 
L 152.603691 129.459148 
L 152.9424 129.450069 
L 156.329491 127.629444 
L 156.837555 127.691986 
L 157.345618 128.063195 
L 157.853682 128.415401 
L 158.192391 128.390249 
L 158.5311 128.110448 
L 159.547227 126.808188 
L 159.885936 126.909106 
L 160.394 127.669652 
L 161.410127 129.6071 
L 161.579482 129.656561 
L 161.918191 129.386876 
L 162.764964 128.145559 
L 163.781091 126.159268 
L 164.1198 125.994735 
L 164.458509 126.125883 
L 164.797218 126.630008 
L 165.135927 127.626935 
L 166.152055 131.53552 
L 166.490764 131.952478 
L 166.660118 131.953943 
L 166.829473 131.833917 
L 167.168182 131.196359 
L 168.184309 128.523719 
L 168.523018 128.309642 
L 168.692373 128.392522 
L 169.031082 128.962523 
L 170.047209 131.603185 
L 170.216564 131.535007 
L 170.555273 130.728377 
L 171.910109 125.573497 
L 172.079464 125.392319 
L 172.248818 125.399171 
L 172.587527 125.873006 
L 173.095591 126.818304 
L 173.4343 126.977223 
L 173.773009 126.65901 
L 174.619782 125.324141 
L 174.958491 125.221792 
L 175.2972 125.423996 
L 175.805264 126.159976 
L 176.482682 127.747323 
L 178.006873 131.724281 
L 178.176227 131.615199 
L 178.514936 130.771265 
L 179.531064 127.139689 
L 179.869773 126.723593 
L 180.547191 126.034358 
L 180.8859 125.715766 
L 181.055255 125.680017 
L 181.224609 125.764211 
L 181.563318 126.317519 
L 182.240736 128.371552 
L 182.7488 129.556186 
L 183.087509 129.826687 
L 183.426218 129.769089 
L 184.6117 128.99459 
L 185.119764 128.380025 
L 185.627827 127.758748 
L 185.797182 127.69501 
L 185.966536 127.757068 
L 186.305245 128.306399 
L 187.490727 131.357953 
L 187.660082 131.271745 
L 187.998791 130.519163 
L 189.184273 126.641738 
L 189.861691 125.953297 
L 190.369755 125.479894 
L 190.708464 125.465308 
L 191.047173 125.805373 
L 191.893945 127.305861 
L 192.402009 128.354688 
L 193.418136 130.862726 
L 193.587491 130.873621 
L 193.9262 130.501735 
L 194.603618 129.572502 
L 194.942327 129.376633 
L 195.281036 129.399903 
L 195.7891 129.619443 
L 195.958455 129.567656 
L 196.297164 129.073365 
L 197.482645 126.569081 
L 197.821355 126.397887 
L 198.160064 126.605495 
L 198.668127 127.012854 
L 199.176191 127.118606 
L 199.5149 127.541871 
L 200.192318 128.74596 
L 200.361673 128.646632 
L 200.700382 127.916731 
L 201.3778 126.265195 
L 201.716509 126.100274 
L 202.055218 126.385465 
L 202.732636 127.309723 
L 203.410055 128.361332 
L 203.748764 128.489112 
L 204.934245 128.314749 
L 205.272955 128.623404 
L 205.611664 129.402189 
L 206.458436 132.044422 
L 206.627791 132.256364 
L 206.797145 132.25343 
L 206.9665 132.020975 
L 207.305209 130.937367 
L 208.151982 127.36952 
L 208.490691 126.693005 
L 208.8294 126.452686 
L 210.522945 126.160533 
L 210.861655 126.26797 
L 211.200364 126.569122 
L 211.708427 127.480737 
L 212.5552 129.500955 
L 212.724555 129.536396 
L 212.893909 129.306232 
L 213.232618 128.16068 
L 213.910036 125.669215 
L 214.248745 125.338941 
L 214.587455 125.575852 
L 215.264873 126.735662 
L 216.111645 128.204361 
L 217.974545 130.370985 
L 218.313255 130.354566 
L 218.651964 130.00253 
L 219.160027 128.956057 
L 219.668091 127.88425 
L 219.837445 127.723999 
L 220.0068 127.718903 
L 220.345509 128.154236 
L 221.361636 130.217249 
L 222.039055 130.827109 
L 222.377764 130.984648 
L 222.716473 130.827785 
L 223.055182 130.25439 
L 224.071309 128.13303 
L 224.748727 126.798221 
L 225.934209 124.016877 
L 226.103564 124.050452 
L 226.442273 124.585091 
L 227.119691 126.113047 
L 227.627755 126.635915 
L 228.813236 127.472904 
L 229.829364 129.046263 
L 231.353555 131.365414 
L 231.522909 131.365129 
L 231.692264 131.228951 
L 232.030973 130.455934 
L 232.539036 128.0488 
L 233.216455 124.752355 
L 233.555164 124.003612 
L 233.724518 123.944404 
L 233.893873 124.109108 
L 234.232582 125.055719 
L 235.418064 129.769836 
L 235.756773 130.2018 
L 235.926127 130.23936 
L 236.095482 130.154912 
L 236.434191 129.549939 
L 236.7729 128.289235 
L 237.450318 125.566557 
L 237.619673 125.291469 
L 237.789027 125.229618 
L 237.958382 125.368244 
L 238.297091 126.138964 
L 238.805155 128.135394 
L 239.651927 131.558705 
L 239.821282 131.810918 
L 239.990636 131.810331 
L 240.159991 131.564295 
L 241.176118 128.98049 
L 241.514827 129.083332 
L 242.022891 129.409156 
L 242.3616 129.256764 
L 242.700309 128.641967 
L 243.208373 127.502184 
L 243.377727 127.324749 
L 243.547082 127.344077 
L 243.885791 127.839729 
L 244.2245 128.344928 
L 244.393855 128.350636 
L 244.732564 127.801743 
L 245.409982 126.343421 
L 245.748691 125.980288 
L 246.0874 125.987663 
L 246.426109 126.433781 
L 247.103527 127.71128 
L 247.272882 127.824698 
L 247.611591 127.668578 
L 248.289009 127.001822 
L 248.627718 126.966257 
L 248.966427 127.162595 
L 250.151909 128.221593 
L 250.659973 128.262311 
L 251.506745 128.167758 
L 251.845455 128.352879 
L 252.353518 129.043889 
L 253.539 130.997367 
L 254.047064 131.527466 
L 254.385773 131.564576 
L 254.724482 131.101175 
L 255.4019 129.251684 
L 256.079318 127.670178 
L 256.587382 127.010146 
L 256.926091 126.905984 
L 257.2648 127.216324 
L 257.603509 127.956604 
L 258.450282 130.028835 
L 258.619636 130.138023 
L 258.788991 130.073729 
L 259.1277 129.416663 
L 260.143827 126.098818 
L 260.313182 125.963735 
L 260.482536 126.034738 
L 260.821245 126.710794 
L 261.668018 129.192987 
L 262.006727 129.474967 
L 262.176082 129.38015 
L 262.514791 128.784864 
L 263.192209 127.293415 
L 263.530918 127.124893 
L 263.869627 127.381803 
L 264.547045 128.162547 
L 264.885755 128.286397 
L 265.224464 128.219872 
L 265.732527 127.842746 
L 266.409945 127.32955 
L 266.748655 127.293207 
L 267.256718 127.534666 
L 267.764782 127.840628 
L 268.103491 127.840146 
L 268.4422 127.536584 
L 268.950264 126.516761 
L 269.288973 125.86074 
L 269.458327 125.709405 
L 269.627682 125.738416 
L 269.966391 126.364919 
L 270.474455 128.271067 
L 270.982518 130.073788 
L 271.321227 130.539998 
L 271.490582 130.500238 
L 271.829291 130.038281 
L 272.337355 129.204066 
L 272.676064 128.984384 
L 273.522836 128.970877 
L 273.861545 128.539327 
L 274.877673 126.601784 
L 275.047027 126.582424 
L 275.385736 126.96665 
L 276.063155 128.152031 
L 276.232509 128.22338 
L 276.401864 128.148972 
L 277.248636 127.249779 
L 277.417991 127.407223 
L 277.7567 128.235331 
L 278.434118 130.401874 
L 278.772827 130.773108 
L 278.942182 130.695139 
L 279.280891 130.051372 
L 280.466373 126.519483 
L 280.974436 126.067492 
L 281.4825 125.978682 
L 281.821209 126.124758 
L 282.159918 126.473438 
L 282.667982 127.418643 
L 283.3454 128.792973 
L 283.684109 129.122012 
L 284.192173 129.193424 
L 284.700236 129.091312 
L 285.038945 128.856546 
L 285.547009 128.145038 
L 286.224427 127.209714 
L 287.0712 126.646225 
L 287.409909 126.538183 
L 287.748618 126.661875 
L 288.256682 127.266333 
L 288.9341 128.146072 
L 289.442164 128.433376 
L 289.950227 128.473949 
L 290.288936 128.264788 
L 290.797 127.465981 
L 291.305064 126.678274 
L 291.643773 126.461047 
L 291.982482 126.475777 
L 292.490545 126.81552 
L 293.167964 127.611128 
L 294.184091 128.833411 
L 294.5228 128.725066 
L 294.861509 128.257104 
L 295.877636 126.378627 
L 296.046991 126.447909 
L 296.3857 127.210718 
L 297.401827 131.067877 
L 297.571182 131.237471 
L 297.740536 131.16828 
L 298.079245 130.468963 
L 298.756664 128.667879 
L 299.264727 127.971688 
L 299.772791 127.69759 
L 300.1115 127.785153 
L 300.450209 128.125903 
L 301.127627 129.260138 
L 301.9744 130.833805 
L 302.313109 131.06666 
L 302.482464 131.006106 
L 302.821173 130.535105 
L 303.667945 128.948378 
L 305.192136 127.39779 
L 305.361491 127.413156 
L 305.7002 127.828182 
L 306.716327 130.036147 
L 306.885682 130.095754 
L 307.224391 129.818756 
L 308.071164 128.263458 
L 308.748582 127.263868 
L 309.256645 126.968284 
L 309.595355 127.015346 
L 309.934064 127.369228 
L 311.119545 129.314519 
L 311.2889 129.259677 
L 311.627609 128.790458 
L 312.813091 126.19241 
L 313.1518 126.184469 
L 314.506636 127.253475 
L 315.0147 127.921072 
L 315.692118 129.018223 
L 315.861473 129.069813 
L 316.030827 128.950867 
L 316.369536 128.234382 
L 317.046955 126.502561 
L 317.385664 126.249854 
L 317.724373 126.464555 
L 318.063082 127.031795 
L 318.571145 128.4251 
L 319.248564 130.43717 
L 319.587273 130.874149 
L 319.756627 130.865214 
L 320.095336 130.463712 
L 320.942109 128.916188 
L 321.280818 128.820231 
L 322.127591 129.250959 
L 322.4663 128.984202 
L 323.143718 128.235338 
L 323.651782 128.112397 
L 324.159845 127.951812 
L 325.175973 127.271841 
L 325.853391 127.262784 
L 326.700164 127.282251 
L 327.208227 127.29597 
L 327.546936 127.600301 
L 328.563064 128.983773 
L 328.901773 128.841708 
L 329.409836 128.450719 
L 329.579191 128.47158 
L 329.9179 128.878919 
L 331.103382 131.131246 
L 331.442091 130.905937 
L 333.135636 128.859914 
L 333.474345 128.768412 
L 333.982409 128.922262 
L 334.998536 129.385976 
L 335.337245 129.31186 
L 335.845309 128.867823 
L 336.522727 127.877884 
L 337.3695 126.700747 
L 337.708209 126.497257 
L 338.046918 126.612675 
L 338.385627 127.087174 
L 339.063045 128.238968 
L 339.740464 129.087683 
L 340.417882 130.216882 
L 340.587236 130.308424 
L 340.756591 130.238439 
L 341.0953 129.638446 
L 341.942073 127.433813 
L 342.280782 127.128767 
L 342.619491 127.312492 
L 343.127555 127.837209 
L 343.466264 127.852302 
L 343.974327 127.564463 
L 344.143682 127.598637 
L 344.313036 127.76967 
L 344.651745 128.576571 
L 345.329164 130.636274 
L 345.498518 130.772546 
L 345.667873 130.640279 
L 346.006582 129.648136 
L 346.853355 126.324101 
L 347.192064 125.711308 
L 347.530773 125.535066 
L 347.869482 125.719152 
L 348.208191 126.232712 
L 349.393673 128.829649 
L 349.563027 128.859763 
L 349.901736 128.50806 
L 350.4098 127.246735 
L 350.917864 125.940592 
L 351.256573 125.681992 
L 351.425927 125.835035 
L 351.764636 126.630806 
L 352.442055 128.457334 
L 352.611409 128.497878 
L 352.780764 128.257224 
L 353.119473 127.038213 
L 353.796891 124.246638 
L 354.1356 123.803631 
L 354.304955 123.8646 
L 354.643664 124.476276 
L 355.151727 126.296296 
L 355.829145 128.891981 
L 356.167855 129.570679 
L 356.506564 129.76811 
L 357.522691 129.830902 
L 358.030755 129.939506 
L 358.369464 129.815143 
L 358.708173 129.428147 
L 359.554945 128.13742 
L 359.7243 128.136858 
L 360.063009 128.540274 
L 361.248491 130.915067 
L 361.417845 130.784823 
L 361.756555 129.948648 
L 363.111391 125.132578 
L 363.280745 125.010817 
L 363.4501 125.072175 
L 363.788809 125.642754 
L 365.143645 128.983709 
L 365.482355 129.264097 
L 365.821064 129.347129 
L 366.159773 129.264115 
L 366.498482 128.988906 
L 367.006545 128.209911 
L 368.361382 125.523145 
L 368.530736 125.641894 
L 368.869445 126.329988 
L 369.546864 127.933862 
L 369.885573 128.048903 
L 370.393636 127.854152 
L 370.562991 127.951718 
L 370.9017 128.580363 
L 371.748473 130.91123 
L 371.917827 131.00865 
L 372.087182 130.875492 
L 372.425891 129.996257 
L 373.272664 127.066628 
L 373.611373 126.584254 
L 373.780727 126.56552 
L 374.119436 126.954785 
L 374.796855 128.655436 
L 375.135564 129.369115 
L 375.474273 129.652467 
L 375.812982 129.539461 
L 376.321045 129.226996 
L 376.829109 129.249609 
L 377.167818 129.220809 
L 377.506527 128.897916 
L 378.014591 128.229767 
L 378.183945 128.154786 
L 378.3533 128.211372 
L 378.692009 128.677824 
L 379.200073 129.436626 
L 379.369427 129.451211 
L 379.538782 129.305238 
L 379.877491 128.591582 
L 380.893618 125.570185 
L 381.232327 125.2683 
L 381.401682 125.3535 
L 381.740391 126.025704 
L 382.248455 128.005745 
L 382.925873 130.822015 
L 383.264582 131.481793 
L 383.433936 131.522021 
L 383.772645 131.133424 
L 384.788773 128.830838 
L 385.466191 126.723235 
L 385.974255 125.441911 
L 386.143609 125.312145 
L 386.312964 125.368223 
L 386.651673 126.00841 
L 387.159736 127.895966 
L 387.6678 129.901558 
L 388.006509 130.430635 
L 388.175864 130.28259 
L 388.514573 129.257197 
L 389.191991 126.623601 
L 389.5307 126.0256 
L 389.869409 125.963234 
L 390.208118 126.319911 
L 390.716182 127.418672 
L 391.562955 129.482798 
L 391.901664 129.84389 
L 392.071018 129.796722 
L 392.409727 129.196992 
L 393.425855 126.43838 
L 393.764564 126.239959 
L 394.103273 126.263743 
L 394.441982 126.465444 
L 394.780691 126.966291 
L 395.288755 128.28659 
L 396.135527 130.743041 
L 396.304882 130.924116 
L 396.474236 130.898612 
L 396.812945 130.273155 
L 397.659718 128.087121 
L 397.998427 127.875563 
L 399.353264 128.247463 
L 399.691973 128.486209 
L 400.877455 129.860105 
L 401.046809 129.832946 
L 401.385518 129.376419 
L 402.232291 127.677926 
L 402.571 127.542033 
L 403.417773 127.47054 
L 404.264545 127.376 
L 404.264545 127.376 
" clip-path="url(#pc6ef971cf2)" style="fill: none; stroke: #1f77b4; stroke-width: 1.5; stroke-linecap: square"/>
   </g>
   <g id="line2d_14">
    <path d="M 48.62 128.172831 
L 421.2 128.172831 
" clip-path="url(#pc6ef971cf2)" style="fill: none; stroke-dasharray: 5.55,2.4; stroke-dashoffset: 0; stroke: #ff0000; stroke-width: 1.5"/>
   </g>
   <g id="patch_3">
    <path d="M 48.62 138.04 
L 48.62 10.8 
" style="fill: none; stroke: #000000; stroke-width: 0.8; stroke-linejoin: miter; stroke-linecap: square"/>
   </g>
   <g id="patch_4">
    <path d="M 421.2 138.04 
L 421.2 10.8 
" style="fill: none; stroke: #000000; stroke-width: 0.8; stroke-linejoin: miter; stroke-linecap: square"/>
   </g>
   <g id="patch_5">
    <path d="M 48.62 138.04 
L 421.2 138.04 
" style="fill: none; stroke: #000000; stroke-width: 0.8; stroke-linejoin: miter; stroke-linecap: square"/>
   </g>
   <g id="patch_6">
    <path d="M 48.62 10.8 
L 421.2 10.8 
" style="fill: none; stroke: #000000; stroke-width: 0.8; stroke-linejoin: miter; stroke-linecap: square"/>
   </g>
   <g id="legend_1">
    <g id="patch_7">
     <path d="M 259.359375 47.44375 
L 414.2 47.44375 
Q 416.2 47.44375 416.2 45.44375 
L 416.2 17.8 
Q 416.2 15.8 414.2 15.8 
L 259.359375 15.8 
Q 257.359375 15.8 257.359375 17.8 
L 257.359375 45.44375 
Q 257.359375 47.44375 259.359375 47.44375 
z
" style="fill: #ffffff; opacity: 0.8; stroke: #cccccc; stroke-linejoin: miter"/>
    </g>
    <g id="line2d_15">
     <path d="M 261.359375 23.473437 
L 271.359375 23.473437 
L 281.359375 23.473437 
" style="fill: none; stroke: #1f77b4; stroke-width: 1.5; stroke-linecap: square"/>
    </g>
    <g id="text_15">
     <!-- Instantaneous Temperature -->
     <g transform="translate(289.359375 26.973437) scale(0.1 -0.1)">
      <defs>
       <path id="Helvetica-49" d="M 628 4591 
L 1256 4591 
L 1256 0 
L 628 0 
L 628 4591 
z
" transform="scale(0.015625)"/>
       <path id="Helvetica-6e" d="M 413 3347 
L 947 3347 
L 947 2872 
Q 1184 3166 1450 3294 
Q 1716 3422 2041 3422 
Q 2753 3422 3003 2925 
Q 3141 2653 3141 2147 
L 3141 0 
L 2569 0 
L 2569 2109 
Q 2569 2416 2478 2603 
Q 2328 2916 1934 2916 
Q 1734 2916 1606 2875 
Q 1375 2806 1200 2600 
Q 1059 2434 1017 2257 
Q 975 2081 975 1753 
L 975 0 
L 413 0 
L 413 3347 
z
M 1734 3428 
L 1734 3428 
z
" transform="scale(0.015625)"/>
       <path id="Helvetica-6f" d="M 1741 363 
Q 2300 363 2508 786 
Q 2716 1209 2716 1728 
Q 2716 2197 2566 2491 
Q 2328 2953 1747 2953 
Q 1231 2953 997 2559 
Q 763 2166 763 1609 
Q 763 1075 997 719 
Q 1231 363 1741 363 
z
M 1763 3444 
Q 2409 3444 2856 3012 
Q 3303 2581 3303 1744 
Q 3303 934 2909 406 
Q 2516 -122 1688 -122 
Q 997 -122 590 345 
Q 184 813 184 1600 
Q 184 2444 612 2944 
Q 1041 3444 1763 3444 
z
M 1744 3428 
L 1744 3428 
z
" transform="scale(0.015625)"/>
      </defs>
      <use xlink:href="#Helvetica-49"/>
      <use xlink:href="#Helvetica-6e" x="27.783203"/>
      <use xlink:href="#Helvetica-73" x="83.398438"/>
      <use xlink:href="#Helvetica-74" x="133.398438"/>
      <use xlink:href="#Helvetica-61" x="161.181641"/>
      <use xlink:href="#Helvetica-6e" x="216.796875"/>
      <use xlink:href="#Helvetica-74" x="272.412109"/>
      <use xlink:href="#Helvetica-61" x="300.195312"/>
      <use xlink:href="#Helvetica-6e" x="355.810547"/>
      <use xlink:href="#Helvetica-65" x="411.425781"/>
      <use xlink:href="#Helvetica-6f" x="467.041016"/>
      <use xlink:href="#Helvetica-75" x="522.65625"/>
      <use xlink:href="#Helvetica-73" x="578.271484"/>
      <use xlink:href="#Helvetica-20" x="628.271484"/>
      <use xlink:href="#Helvetica-54" x="656.054688"/>
      <use xlink:href="#Helvetica-65" x="717.138672"/>
      <use xlink:href="#Helvetica-6d" x="772.753906"/>
      <use xlink:href="#Helvetica-70" x="856.054688"/>
      <use xlink:href="#Helvetica-65" x="911.669922"/>
      <use xlink:href="#Helvetica-72" x="967.285156"/>
      <use xlink:href="#Helvetica-61" x="1000.585938"/>
      <use xlink:href="#Helvetica-74" x="1056.201172"/>
      <use xlink:href="#Helvetica-75" x="1083.984375"/>
      <use xlink:href="#Helvetica-72" x="1139.599609"/>
      <use xlink:href="#Helvetica-65" x="1172.900391"/>
     </g>
    </g>
    <g id="line2d_16">
     <path d="M 261.359375 37.73125 
L 271.359375 37.73125 
L 281.359375 37.73125 
" style="fill: none; stroke-dasharray: 5.55,2.4; stroke-dashoffset: 0; stroke: #ff0000; stroke-width: 1.5"/>
    </g>
    <g id="text_16">
     <!-- Target Temperature -->
     <g transform="translate(289.359375 41.23125) scale(0.1 -0.1)">
      <defs>
       <path id="Helvetica-67" d="M 1594 3406 
Q 1988 3406 2281 3213 
Q 2441 3103 2606 2894 
L 2606 3316 
L 3125 3316 
L 3125 272 
Q 3125 -366 2938 -734 
Q 2588 -1416 1616 -1416 
Q 1075 -1416 706 -1173 
Q 338 -931 294 -416 
L 866 -416 
Q 906 -641 1028 -763 
Q 1219 -950 1628 -950 
Q 2275 -950 2475 -494 
Q 2594 -225 2584 466 
Q 2416 209 2178 84 
Q 1941 -41 1550 -41 
Q 1006 -41 598 345 
Q 191 731 191 1622 
Q 191 2463 602 2934 
Q 1013 3406 1594 3406 
z
M 2606 1688 
Q 2606 2309 2350 2609 
Q 2094 2909 1697 2909 
Q 1103 2909 884 2353 
Q 769 2056 769 1575 
Q 769 1009 998 714 
Q 1228 419 1616 419 
Q 2222 419 2469 966 
Q 2606 1275 2606 1688 
z
M 1659 3428 
L 1659 3428 
z
" transform="scale(0.015625)"/>
      </defs>
      <use xlink:href="#Helvetica-54"/>
      <use xlink:href="#Helvetica-61" x="61.083984"/>
      <use xlink:href="#Helvetica-72" x="116.699219"/>
      <use xlink:href="#Helvetica-67" x="150"/>
      <use xlink:href="#Helvetica-65" x="205.615234"/>
      <use xlink:href="#Helvetica-74" x="261.230469"/>
      <use xlink:href="#Helvetica-20" x="289.013672"/>
      <use xlink:href="#Helvetica-54" x="316.796875"/>
      <use xlink:href="#Helvetica-65" x="377.880859"/>
      <use xlink:href="#Helvetica-6d" x="433.496094"/>
      <use xlink:href="#Helvetica-70" x="516.796875"/>
      <use xlink:href="#Helvetica-65" x="572.412109"/>
      <use xlink:href="#Helvetica-72" x="628.027344"/>
      <use xlink:href="#Helvetica-61" x="661.328125"/>
      <use xlink:href="#Helvetica-74" x="716.943359"/>
      <use xlink:href="#Helvetica-75" x="744.726562"/>
      <use xlink:href="#Helvetica-72" x="800.341797"/>
      <use xlink:href="#Helvetica-65" x="833.642578"/>
     </g>
    </g>
   </g>
  </g>
 </g>
 <defs>
  <clipPath id="pc6ef971cf2">
   <rect x="48.62" y="10.8" width="372.58" height="127.24"/>
  </clipPath>
 </defs>
</svg>
